<?xml version="1.0" encoding="utf-8" ?>	<!-- Generator: Assembly 2.2 - http://assemblyapp.co -->	<svg version="1.1" xmlns="http://www.w3.org/2000/svg" xmlns:xlink="http://www.w3.org/1999/xlink" width="2048.00" height="1365.33" viewBox="0 0 2048.0 1365.3333333333335">		<g id="document" transform="matrix(1,0,0,1,1024.0,682.6666666666667)">			<path d="M-849.066,-682.667 C-879.036,-644.927 -897.906,-598.306 -897.906,-545.026 C-897.906,-424.036 -801.335,-326.355 -680.345,-326.355 C-664.805,-326.355 -650.375,-327.465 -635.945,-330.795 C-589.324,-223.125 -480.544,-146.534 -354.003,-146.534 C-191.943,-146.534 -59.8521,-273.075 -47.642,-430.695 C-28.7719,-424.035 -8.79186,-419.595 13.4082,-419.595 C118.859,-419.595 203.219,-503.956 203.219,-609.406 C203.219,-633.826 197.669,-659.356 189.899,-681.557 L-849.066,-682.667 Z " fill="#000000" fill-opacity="1.00" />			<g>				<path d="M382.034,-331.927 L356.543,-363.357 C352.325,-368.113 345.348,-368.892 340.243,-364.875 L270.525,-307.641 C265.769,-303.423 267.309,-302.07 269.007,-291.341 L276.68,-245.131 C279.436,-237.041 287.875,-239.596 292.979,-243.613 L380.515,-315.628 C385.271,-319.845 386.05,-326.823 382.034,-331.927 Z " fill="#17775e" fill-opacity="1.00" />				<path d="M382.034,-331.927 C386.05,-326.823 393.229,-326.392 398.333,-330.409 L485.869,-402.424 C490.973,-406.44 495.047,-414.301 487.388,-418.723 L443.731,-435.573 C433.526,-439.608 432.535,-441.108 427.431,-437.092 L357.713,-379.857 C352.609,-375.841 352.178,-368.662 356.195,-363.558 L382.034,-331.927 Z " fill="#17775e" fill-opacity="1.00" />				<path d="M334.982,-538.282 C289.355,-594.335 201.307,-597.819 178.586,-579.37 C158.316,-562.755 142.912,-474.162 188.74,-418.457 C189.236,-417.707 190.079,-416.756 190.574,-416.006 C275.849,-327.314 378.906,-267.814 378.906,-267.814 L445.02,-322.023 C445.02,-322.023 393.713,-457.487 336.816,-535.831 C336.522,-536.929 335.678,-537.88 334.982,-538.282 Z " fill="#f1c660" fill-opacity="1.00" />				<path d="M389.522,-267.615 L385.188,-272.9 L438.347,-316.494 L442.681,-311.209 L389.522,-267.615 Z " fill="#575756" fill-opacity="1.00" />				<path d="M386.623,-399.375 C392.678,-404.235 393.418,-413.557 388.558,-419.612 L304.64,-521.912 C299.78,-527.967 290.459,-528.707 284.403,-523.847 L212.783,-464.925 C206.728,-460.065 205.988,-450.744 210.848,-444.688 L294.765,-342.389 C299.625,-336.333 308.947,-335.594 315.002,-340.454 L386.623,-399.375 Z M216.304,-460.571 L288.474,-519.64 C292.426,-522.465 297.81,-522.142 300.835,-518.538 L384.753,-416.238 C387.578,-412.286 386.906,-407.103 383.303,-404.078 L311.682,-345.156 C307.73,-342.331 302.346,-342.654 299.32,-346.258 L214.854,-448.41 C212.029,-452.362 212.7,-457.545 216.304,-460.571 Z " fill="#c9942b" fill-opacity="1.00" />				<path d="M294.742,-438.032 C295.895,-439.223 296.846,-440.067 297.851,-441.808 C308.917,-452.13 315.712,-466.312 316.628,-481.567 C317.892,-496.621 313.021,-511.502 303.65,-523.412 L303.301,-523.613 C303.502,-523.961 303.154,-524.162 303.154,-524.162 C300.825,-527.364 297.745,-530.07 294.666,-532.777 C293.273,-533.581 292.081,-534.733 290.689,-535.537 C280.994,-542.063 269.691,-545.803 257.824,-546.155 C243.065,-546.321 229.081,-541.397 217.72,-532.172 C191.596,-511.046 187.833,-472.366 209.161,-446.591 C219.229,-434.279 233.705,-426.385 249.455,-424.72 C261.267,-423.47 273.095,-425.462 283.691,-430.95 C284.99,-431.592 286.289,-432.235 287.79,-433.226 C290.388,-434.51 292.84,-436.345 294.742,-438.032 Z M221.736,-527.068 C231.945,-535.101 244.831,-539.731 257.246,-539.526 C267.867,-539.429 277.925,-535.943 286.575,-530.02 C287.968,-529.216 289.36,-528.412 290.204,-527.461 C292.935,-524.956 295.667,-522.45 297.849,-519.798 C297.849,-519.798 298.197,-519.597 298.197,-519.597 L298.545,-519.396 C315.95,-497.277 314.065,-465.87 293.634,-446.564 C292.481,-445.372 291.53,-444.528 290.579,-443.685 C288.676,-441.998 286.627,-440.86 284.376,-439.374 C283.425,-438.531 282.126,-437.888 280.826,-437.246 C271.182,-432.601 260.801,-430.703 250.234,-431.697 C235.93,-433.456 223.195,-440.345 214.118,-451.156 C195.321,-474.078 198.814,-508.271 221.736,-527.068 Z " fill="#c9942b" fill-opacity="1.00" />				<path d="M290.552,-527.26 C289.36,-528.412 288.316,-529.015 286.923,-529.819 C278.273,-535.742 267.666,-539.081 257.595,-539.325 C244.831,-539.731 232.347,-535.797 221.736,-527.068 C198.613,-507.923 195.321,-474.078 214.265,-450.607 C223.49,-439.246 236.774,-432.505 250.381,-431.148 C260.747,-429.805 271.128,-431.704 280.974,-436.697 C282.273,-437.339 283.572,-437.982 284.523,-438.825 C286.573,-439.963 288.824,-441.449 290.726,-443.136 C291.677,-443.979 292.628,-444.823 293.781,-446.014 C314.011,-464.973 316.298,-497.076 298.693,-518.846 C298.344,-519.047 298.545,-519.396 298.197,-519.597 C295.667,-522.45 293.284,-524.755 290.552,-527.26 Z " fill="#88bfb7" fill-opacity="1.00" />				<path d="M257.595,-539.325 L250.033,-431.349 C260.399,-430.006 270.78,-431.905 280.625,-436.898 L286.923,-529.819 C278.273,-535.742 268.216,-539.228 257.595,-539.325 Z " fill="#ccfef8" fill-opacity="1.00" />				<path d="M290.552,-527.26 L284.523,-438.825 C286.573,-439.963 288.824,-441.449 290.726,-443.136 C291.677,-443.979 292.628,-444.823 293.781,-446.014 L298.693,-518.846 C298.344,-519.047 298.545,-519.396 298.197,-519.597 C295.667,-522.45 293.284,-524.755 290.552,-527.26 Z " fill="#ccfef8" fill-opacity="1.00" />				<path d="M349.851,-461.921 C347.816,-464.025 344.775,-464.387 342.873,-462.7 L330.561,-452.632 C328.458,-450.597 328.095,-447.557 329.782,-445.655 C331.817,-443.551 334.858,-443.189 336.76,-444.876 L349.072,-454.943 C351.175,-456.979 351.538,-460.019 349.851,-461.921 Z " fill="#f6f6f6" fill-opacity="1.00" />				<path d="M411.878,-258.99 C415.291,-252.842 421.303,-247.978 430.865,-245.243 C438.834,-242.963 443.575,-243.939 447.366,-244.072 C447.366,-244.072 440.18,-265.397 443.289,-269.173 C446.196,-272.601 452.42,-259.259 452.42,-259.259 C452.42,-259.259 453.576,-272.518 450.016,-279.216 C443.738,-291.66 429.851,-297.357 419.255,-291.869 C408.806,-285.832 405.399,-271.087 411.878,-258.99 Z " fill="#db5a33" fill-opacity="1.00" />			</g>			<path d="M-632.065,682.667 L-632.065,290.732 L-1024,290.732 L-1024,682.667 L-632.065,682.667 Z " fill="#1fd4ff" fill-opacity="1.00" />			<path d="M-240.131,682.667 L-240.131,290.732 L-632.066,290.732 L-632.066,682.667 L-240.131,682.667 Z " fill="#1fd4ff" fill-opacity="1.00" />			<path d="M151.804,682.667 L151.804,290.732 L-240.131,290.732 L-240.131,682.667 L151.804,682.667 Z " fill="#1fd4ff" fill-opacity="1.00" />			<path d="M543.738,682.667 L543.738,290.732 L151.804,290.732 L151.804,682.667 L543.738,682.667 Z " fill="#1fd4ff" fill-opacity="1.00" />			<g>				<path d="M-596.414,345.164 C-596.414,336.177 -602.834,329.115 -610.537,329.115 L-654.19,329.115 C-661.893,329.115 -668.313,336.177 -668.313,345.164 C-668.313,346.448 -668.313,348.374 -667.671,349.658 L-596.414,349.658 C-596.414,348.374 -596.414,346.448 -596.414,345.164 Z " fill="#f6c461" fill-opacity="1.00" />				<path d="M-260.673,572.415 L-319.091,506.294 C-319.091,506.294 -319.733,505.652 -319.733,505.652 C-319.733,505.652 -319.091,505.01 -319.091,505.01 L-260.031,437.605 L-244.625,420.272 L-240.773,415.779 C-240.773,411.927 -246.551,408.717 -254.254,408.717 L-349.263,408.717 C-356.966,408.717 -358.892,411.285 -362.744,415.779 L-366.595,420.272 L-382.002,437.605 L-401.261,459.431 C-419.235,429.902 -455.185,414.495 -489.208,408.075 C-489.208,408.075 -489.208,408.075 -489.208,407.433 L-512.318,366.99 C-518.096,356.719 -519.38,349.016 -528.367,349.016 L-597.056,349.016 L-667.671,349.016 L-740.211,349.016 C-749.198,349.016 -751.766,358.003 -756.26,366.99 L-776.802,406.791 C-827.516,415.137 -882.724,441.457 -882.724,505.652 C-882.724,576.908 -800.555,604.512 -744.705,607.08 C-744.063,607.08 -744.063,607.08 -743.421,607.08 L-527.083,607.08 C-526.441,607.08 -526.441,607.08 -525.799,607.08 C-483.431,605.154 -426.939,589.105 -401.261,550.588 L-382.002,572.415 L-366.595,589.747 L-362.102,594.883 C-356.966,600.019 -356.324,601.944 -348.621,601.944 L-253.612,601.944 C-245.909,601.944 -240.131,598.735 -240.131,594.883 L-244.625,589.747 L-260.673,572.415 Z " fill="#ea1e31" fill-opacity="1.00" />				<path d="M-679.868,361.213 L-734.434,361.213 C-738.927,361.213 -741.495,363.139 -745.989,372.768 L-756.902,396.52 C-757.544,397.804 -758.186,399.73 -758.186,400.372 C-758.186,405.507 -751.766,407.433 -746.631,408.075 C-745.989,408.075 -745.989,408.075 -745.347,408.075 L-740.211,408.075 L-729.94,408.075 L-679.868,407.433 C-673.448,407.433 -668.313,402.298 -668.313,395.878 L-668.313,372.768 C-668.313,366.348 -673.448,361.213 -679.868,361.213 Z " fill="#88bfb7" fill-opacity="1.00" />				<path d="M-711.323,368.274 C-713.891,365.706 -718.385,365.706 -720.953,368.274 L-758.186,401.014 C-758.186,406.149 -751.766,408.075 -746.631,408.717 L-712.607,378.545 C-709.397,375.336 -708.755,370.842 -711.323,368.274 Z " fill="#ccfef8" fill-opacity="1.00" />				<path d="M-712.607,388.175 C-713.891,386.891 -716.459,386.891 -718.385,388.817 L-740.211,408.075 L-729.94,408.075 L-713.891,393.952 C-711.965,392.026 -711.323,389.459 -712.607,388.175 Z " fill="#ccfef8" fill-opacity="1.00" />				<path d="M-613.747,366.348 C-614.389,365.064 -615.031,364.422 -615.673,363.139 C-616.956,361.855 -618.882,360.571 -621.45,360.571 L-623.376,360.571 L-652.906,360.571 C-658.041,360.571 -661.893,365.706 -661.893,371.484 L-661.893,395.878 C-661.893,399.088 -660.609,402.298 -658.683,404.223 C-657.399,405.507 -654.832,406.791 -652.906,406.791 L-641.993,406.791 L-622.092,406.791 C-616.956,406.791 -613.105,401.656 -613.105,395.878 L-613.105,381.113 L-613.105,372.126 C-612.463,370.2 -613.105,368.274 -613.747,366.348 Z " fill="#88bfb7" fill-opacity="1.00" />				<path d="M-613.747,366.348 C-615.031,366.348 -616.314,366.99 -616.956,368.274 L-658.683,404.865 C-657.399,406.149 -654.832,407.433 -652.906,407.433 L-641.993,407.433 L-612.463,381.755 L-612.463,372.126 C-612.463,370.2 -613.105,368.274 -613.747,366.348 Z " fill="#ccfef8" fill-opacity="1.00" />				<path d="M-515.528,396.52 L-526.441,372.768 C-530.935,363.139 -533.503,361.213 -537.996,361.213 L-592.562,361.213 C-598.982,361.213 -604.117,366.348 -604.117,372.768 L-604.117,395.878 C-604.117,402.298 -598.982,407.433 -592.562,407.433 L-572.02,407.433 L-552.761,407.433 L-527.725,408.075 C-520.664,408.075 -511.034,405.507 -515.528,396.52 Z " fill="#88bfb7" fill-opacity="1.00" />				<path d="M-530.293,379.829 C-532.861,377.261 -537.354,377.261 -539.922,379.829 L-572.02,408.075 L-552.761,408.075 L-531.577,389.459 C-528.367,386.891 -527.725,382.397 -530.293,379.829 Z " fill="#ccfef8" fill-opacity="1.00" />				<path d="M-790.283,460.715 C-814.036,460.715 -833.294,480.616 -833.294,505.652 C-833.294,508.22 -833.294,510.787 -832.652,513.355 C-832.01,517.849 -830.084,522.984 -828.158,526.836 C-821.097,540.959 -806.974,549.946 -790.283,549.946 C-766.531,549.946 -747.273,530.046 -747.273,505.01 C-747.273,480.616 -766.531,460.715 -790.283,460.715 Z " fill="#88bfb7" fill-opacity="1.00" />				<path d="M-787.074,481.9 C-789.641,479.332 -794.135,479.332 -796.703,481.9 L-832.652,513.355 C-832.01,517.849 -830.084,522.984 -828.158,526.836 L-788.357,491.529 C-785.148,488.961 -784.506,484.467 -787.074,481.9 Z " fill="#ccfef8" fill-opacity="1.00" />				<path d="M-607.327,485.109 C-609.253,481.258 -611.821,477.406 -615.031,474.196 C-622.734,465.851 -633.647,460.073 -645.844,460.073 C-669.596,460.073 -688.855,479.974 -688.855,505.01 C-688.855,529.404 -669.596,549.946 -645.844,549.946 C-622.092,549.946 -602.834,530.046 -602.834,505.01 C-602.834,497.948 -604.759,491.529 -607.327,485.109 Z " fill="#88bfb7" fill-opacity="1.00" />				<path d="M-771.667,483.183 L-798.629,506.936 C-800.555,508.862 -801.196,511.429 -799.913,512.713 C-798.629,513.997 -796.061,513.997 -794.135,512.071 L-767.173,487.677 C-765.247,485.751 -764.605,483.183 -765.889,481.9 C-767.173,480.616 -769.741,481.258 -771.667,483.183 Z " fill="#ccfef8" fill-opacity="1.00" />				<path d="M-638.141,494.739 C-641.351,497.306 -641.993,501.8 -639.425,504.368 C-636.857,506.936 -632.363,506.936 -629.795,504.368 L-607.327,484.467 C-609.253,480.616 -611.821,476.764 -615.031,473.554 L-638.141,494.739 Z " fill="#ccfef8" fill-opacity="1.00" />				<path d="M-460.962,485.109 C-462.246,483.183 -462.888,481.258 -464.172,479.332 C-471.875,467.777 -484.714,460.715 -498.837,460.715 C-522.59,460.715 -541.848,480.616 -541.848,505.652 C-541.848,522.342 -532.861,536.465 -520.022,544.169 C-516.17,546.737 -511.034,548.662 -506.541,549.304 C-503.973,549.946 -501.405,549.946 -498.837,549.946 C-475.085,549.946 -455.827,530.046 -455.827,505.01 C-455.827,497.948 -457.753,490.887 -460.962,485.109 Z " fill="#88bfb7" fill-opacity="1.00" />				<path d="M-624.018,472.912 C-625.302,471.628 -627.87,471.628 -629.795,473.554 L-656.757,497.306 C-658.683,499.232 -659.325,501.8 -658.041,503.084 C-656.757,504.368 -654.19,504.368 -652.264,502.442 L-625.302,478.69 C-623.376,476.764 -622.734,474.196 -624.018,472.912 Z " fill="#ccfef8" fill-opacity="1.00" />				<path d="M-467.382,505.652 C-469.95,503.084 -474.443,503.084 -477.011,505.652 L-519.38,542.885 C-520.022,543.527 -520.022,543.527 -520.664,544.169 C-516.812,546.737 -511.676,548.662 -507.183,549.304 L-468.666,515.923 C-465.456,512.713 -464.814,508.22 -467.382,505.652 Z " fill="#ccfef8" fill-opacity="1.00" />				<path d="M-491.776,503.726 C-493.702,505.652 -494.344,508.22 -493.06,509.503 C-491.776,510.787 -489.208,510.787 -487.282,508.862 L-460.32,485.109 C-461.604,483.183 -462.246,481.258 -463.53,479.332 C-463.53,479.332 -464.172,479.974 -464.172,479.974 L-491.776,503.726 Z " fill="#ccfef8" fill-opacity="1.00" />				<path d="M-244.625,420.272 L-366.595,420.272 L-381.36,437.605 L-260.032,437.605 L-244.625,420.272 Z " fill="#ffffff" fill-opacity="1.00" />				<path d="M-625.302,245.02 C-625.302,242.452 -627.228,239.884 -630.437,239.884 L-661.893,239.884 L-661.893,237.316 C-661.893,231.539 -666.387,227.045 -672.164,227.045 C-677.942,227.045 -682.435,231.539 -682.435,237.316 L-682.435,252.723 C-682.435,258.5 -677.942,262.994 -672.164,262.994 C-666.387,262.994 -661.893,258.5 -661.893,252.723 L-661.893,250.155 L-636.215,250.155 L-636.215,330.399 C-636.215,333.609 -633.647,336.177 -630.437,336.177 C-627.228,336.177 -624.66,333.609 -624.66,330.399 L-624.66,246.945 C-624.66,246.945 -624.66,246.303 -624.66,246.303 C-625.302,245.661 -625.302,245.661 -625.302,245.02 Z " fill="#991020" fill-opacity="1.00" />				<path d="M-259.39,573.699 L-381.36,573.699 L-365.953,591.031 L-243.983,591.031 L-259.39,573.699 Z " fill="#ffffff" fill-opacity="1.00" />			</g>			<path d="M1026.08,682.667 L1026.08,-120.924 L543.738,-120.924 L543.738,682.667 L1026.08,682.667 Z " fill="#5b6c69" fill-opacity="1.00" />			<path d="M1026.08,200.327 L929.61,200.327 L929.61,682.667 L1026.08,682.667 L1026.08,200.327 Z M640.206,200.327 L543.738,200.327 L543.738,682.667 L640.206,682.667 L640.206,200.327 Z " fill="#ffc81f" fill-opacity="1.00" />			<path d="M784.908,-314.58 C784.908,-301.897 795.263,-291.542 807.946,-291.542 L876.944,-291.542 C889.627,-291.542 899.982,-301.897 899.982,-314.58 C899.982,-327.263 889.627,-337.618 876.944,-337.618 L807.946,-337.618 C795.263,-337.618 784.908,-327.263 784.908,-314.58 Z " fill="#f032e6" fill-opacity="1.00" />			<path d="M901.819,-120.924 L901.819,-358.017 L878.055,-358.017 L878.055,-120.924 L901.819,-120.924 Z " fill="#991020" fill-opacity="1.00" />			<path d="M767.271,-218.781 C761.369,-218.781 755.921,-217.117 751.382,-214.393 C744.572,-225.137 732.617,-232.401 718.998,-232.401 C702.2,-232.401 687.976,-221.657 682.831,-206.373 C679.955,-207.432 676.929,-208.037 673.751,-208.037 C659.375,-208.037 647.874,-196.536 647.874,-182.16 C647.874,-167.784 659.375,-156.284 673.751,-156.284 L766.968,-156.284 C784.371,-156.284 798.293,-170.206 798.293,-187.608 C798.444,-204.708 784.371,-218.781 767.271,-218.781 Z " fill="#3a8b7c" fill-opacity="1.00" />			<path d="M728.857,-121.102 C733.48,-128.924 736.147,-137.992 736.147,-147.77 C736.147,-176.394 712.856,-199.507 684.232,-199.507 C662.542,-199.507 643.874,-186.173 636.229,-167.327 C628.228,-176.928 616.494,-182.617 603.16,-182.617 C579.158,-182.617 559.601,-163.238 559.601,-139.058 C559.601,-132.658 560.846,-126.435 563.513,-120.924 L728.857,-121.102 Z " fill="#a8e1d6" fill-opacity="1.00" />			<path d="M865.891,-121.102 C870.514,-128.924 873.18,-137.992 873.18,-147.77 C873.18,-176.394 849.89,-199.507 821.266,-199.507 C799.575,-199.507 780.907,-186.173 773.262,-167.327 C765.262,-176.928 753.528,-182.617 740.194,-182.617 C716.192,-182.617 696.635,-163.238 696.635,-139.058 C696.635,-132.658 697.88,-126.435 700.546,-120.924 L865.891,-121.102 Z " fill="#81c5b8" fill-opacity="1.00" />			<path d="M932.244,52.9909 C932.244,-28.3808 866.279,-94.3455 784.908,-94.3455 C703.536,-94.3455 637.571,-28.3808 637.571,52.9909 C637.571,134.363 703.536,200.327 784.908,200.327 C866.279,200.327 932.244,134.363 932.244,52.9909 Z " fill="#1a2ad1" fill-opacity="1.00" />			<path d="M736.421,155.954 L719.603,160.295 C719.603,160.295 730.043,163.064 737.488,164.956 L741.871,181.936 C741.871,181.936 744.639,171.496 746.532,164.051 L746.532,164.051 L763.511,159.668 C763.511,159.668 753.224,156.94 745.791,155.049 L741.243,137.431 C741.243,137.431 738.312,148.484 736.421,155.954 L736.421,155.954 Z " fill="#ffcc1a" fill-opacity="1.00" />			<path d="M834.44,9.64034 L695.696,208.536 C695.696,208.536 848.682,19.292 855.974,0.833596 C863.256,-17.5963 893.026,-74.3024 893.118,-74.4771 L629.274,147.916 C629.274,147.916 785.848,46.5552 834.44,9.64034 L834.44,9.64034 Z M893.117,-74.4763 C893.118,-74.4771 893.118,-74.4775 893.118,-74.4775 C893.118,-74.4775 893.118,-74.4775 893.118,-74.4775 L893.117,-74.4763 Z " fill="#ff0000" fill-opacity="1.00" />			<path d="M731.912,29.4062 C731.912,27.81 731.353,26.4266 730.236,25.256 C729.066,24.1386 727.682,23.5799 726.086,23.5799 C718.211,23.5799 712.305,23.5799 708.367,23.5799 C703.153,23.5799 699.242,23.5799 696.635,23.5799 C696.635,36.6692 696.635,48.109 696.635,57.8993 C696.635,67.6897 696.635,75.8572 696.635,82.4018 C701.849,82.4018 705.76,82.4018 708.367,82.4018 C708.367,61.4909 708.367,45.7944 708.367,35.3124 C713.635,35.3124 717.573,35.3124 720.18,35.3124 C720.18,56.2233 720.18,71.9197 720.18,82.4018 C725.394,82.4018 729.305,82.4018 731.912,82.4018 C731.912,58.8837 731.912,41.2185 731.912,29.4062 Z M779.002,82.4018 C779.002,58.8837 779.002,41.2185 779.002,29.4062 C779.002,27.81 778.443,26.4266 777.326,25.256 C776.155,24.1386 774.772,23.5799 773.175,23.5799 C762.693,23.5799 754.845,23.5799 749.631,23.5799 C747.981,23.5799 746.598,24.1386 745.48,25.256 C744.31,26.4266 743.724,27.81 743.724,29.4062 C743.724,36.749 743.724,43.1872 743.724,48.7209 C743.724,54.2014 743.724,58.7773 743.724,62.4487 C743.724,71.3345 743.724,77.9855 743.724,82.4018 C748.939,82.4018 752.85,82.4018 755.457,82.4018 C755.457,71.9197 755.457,64.0715 755.457,58.8571 C760.725,58.8571 764.662,58.8571 767.269,58.8571 C767.269,69.3391 767.269,77.1874 767.269,82.4018 C772.484,82.4018 776.394,82.4018 779.002,82.4018 Z M767.269,47.1246 C762.055,47.1246 758.117,47.1246 755.457,47.1246 C755.457,41.857 755.457,37.9196 755.457,35.3124 C760.725,35.3124 764.662,35.3124 767.269,35.3124 C767.269,39.6223 767.269,42.868 767.269,45.0495 C767.269,45.9541 767.269,46.6458 767.269,47.1246 Z M814.359,41.2185 C819.573,41.2185 823.484,41.2185 826.091,41.2185 C826.091,36.0041 826.091,32.0667 826.091,29.4062 C826.091,27.81 825.532,26.4266 824.415,25.256 C823.244,24.1386 821.861,23.5799 820.265,23.5799 C809.783,23.5799 801.934,23.5799 796.72,23.5799 C795.071,23.5799 793.687,24.1386 792.57,25.256 C791.399,26.4266 790.814,27.81 790.814,29.4062 C790.814,34.6207 790.814,39.1966 790.814,43.134 C790.814,47.0714 790.814,50.3437 790.814,52.951 C790.814,54.6004 791.399,56.0104 792.57,57.181 C793.687,58.2984 795.071,58.8571 796.72,58.8571 C804.542,58.8571 810.421,58.8571 814.359,58.8571 C814.359,64.0715 814.359,68.0089 814.359,70.6694 C809.144,70.6694 805.207,70.6694 802.546,70.6694 C802.546,68.0089 802.546,66.0402 802.546,64.7632 C797.332,64.7632 793.421,64.7632 790.814,64.7632 C790.814,69.9776 790.814,73.8885 790.814,76.4957 C790.814,78.1451 791.399,79.5285 792.57,80.6459 C793.687,81.8165 795.071,82.4018 796.72,82.4018 C807.149,82.4018 814.997,82.4018 820.265,82.4018 C821.861,82.4018 823.244,81.8165 824.415,80.6459 C825.532,79.5285 826.091,78.1451 826.091,76.4957 C826.091,66.0668 826.091,58.2186 826.091,52.951 C826.091,51.3547 825.532,49.9713 824.415,48.8007 C823.244,47.6833 821.861,47.1246 820.265,47.1246 C812.39,47.1246 806.484,47.1246 802.546,47.1246 C802.546,41.857 802.546,37.9196 802.546,35.3124 C807.814,35.3124 811.751,35.3124 814.359,35.3124 C814.359,37.9196 814.359,39.8883 814.359,41.2185 Z M873.18,82.4018 C873.18,58.8837 873.18,41.2185 873.18,29.4062 C873.18,27.81 872.622,26.4266 871.504,25.256 C870.334,24.1386 868.95,23.5799 867.354,23.5799 C856.872,23.5799 849.024,23.5799 843.809,23.5799 C842.16,23.5799 840.777,24.1386 839.659,25.256 C838.489,26.4266 837.903,27.81 837.903,29.4062 C837.903,36.749 837.903,43.1872 837.903,48.7209 C837.903,54.2014 837.903,58.7773 837.903,62.4487 C837.903,71.3345 837.903,77.9855 837.903,82.4018 C843.118,82.4018 847.029,82.4018 849.636,82.4018 C849.636,71.9197 849.636,64.0715 849.636,58.8571 C854.903,58.8571 858.841,58.8571 861.448,58.8571 C861.448,69.3391 861.448,77.1874 861.448,82.4018 C866.662,82.4018 870.573,82.4018 873.18,82.4018 Z M861.448,47.1246 C856.234,47.1246 852.296,47.1246 849.636,47.1246 C849.636,41.857 849.636,37.9196 849.636,35.3124 C854.903,35.3124 858.841,35.3124 861.448,35.3124 C861.448,39.6223 861.448,42.868 861.448,45.0495 C861.448,45.9541 861.448,46.6458 861.448,47.1246 Z " fill="#ffffff" fill-opacity="1.00" />			<path d="M736.421,-17.2626 L719.603,-12.9217 C719.603,-12.9217 730.043,-10.1529 737.488,-8.26065 L741.871,8.71908 C741.871,8.71908 744.639,-1.72082 746.532,-9.16608 L746.532,-9.16608 L763.511,-13.5488 C763.511,-13.5488 753.224,-16.277 745.791,-18.168 L741.243,-35.7856 C741.243,-35.7856 738.312,-24.7334 736.421,-17.2626 L736.421,-17.2626 Z " fill="#ffcc1a" fill-opacity="1.00" />			<path d="M694.514,122.596 L684.297,125.281 C684.297,125.281 690.654,126.937 695.188,128.068 L697.899,138.383 C697.899,138.383 699.555,132.026 700.686,127.493 L700.686,127.493 L711.001,124.782 C711.001,124.782 704.737,123.15 700.211,122.02 L697.397,111.317 C697.397,111.317 695.645,118.047 694.514,122.596 L694.514,122.596 Z " fill="#ffcc1a" fill-opacity="1.00" />			<path d="M848.102,129.361 L837.874,132.001 C837.874,132.001 844.223,133.685 848.751,134.835 L851.417,145.162 C851.417,145.162 853.101,138.813 854.251,134.285 L854.251,134.285 L864.578,131.619 C864.578,131.619 858.322,129.96 853.801,128.81 L851.035,118.095 C851.035,118.095 849.253,124.817 848.102,129.361 L848.102,129.361 Z " fill="#ffcc1a" fill-opacity="1.00" />			<path d="M881.404,120.694 L893.118,117.671 C893.118,117.671 885.846,115.742 880.661,114.424 L877.608,102.598 C877.608,102.598 875.679,109.869 874.361,115.055 L874.361,115.055 L862.535,118.108 C862.535,118.108 869.7,120.008 874.878,121.325 L878.045,133.596 C878.045,133.596 880.086,125.898 881.404,120.694 L881.404,120.694 Z " fill="#ffcc1a" fill-opacity="1.00" />			<path d="M846.09,-55.9545 L829.272,-51.6135 C829.272,-51.6135 839.712,-48.8448 847.157,-46.9525 L851.54,-29.9728 C851.54,-29.9728 854.308,-40.4127 856.201,-47.8579 L856.201,-47.8579 L873.18,-52.2406 C873.18,-52.2406 862.893,-54.9689 855.46,-56.8598 L850.912,-74.4775 C850.912,-74.4775 847.981,-63.4253 846.09,-55.9545 L846.09,-55.9545 Z " fill="#ffcc1a" fill-opacity="1.00" />			<path d="M823.757,23.6798 C803.771,-10.937 751.284,-78.4226 716.667,-58.4366 C682.05,-38.4506 719.33,36.7014 739.316,71.3181 C759.302,105.935 806.188,188.558 840.805,168.572 C875.422,148.586 843.743,58.2965 823.757,23.6798 Z M716.667,-58.4366 C737.487,-70.4571 811.736,8.80654 823.757,29.6268 C835.777,50.447 867.12,145.739 836.813,158.082 C806.506,170.425 751.337,92.1384 739.316,71.3181 C727.296,50.4979 695.847,-46.416 716.667,-58.4366 Z " fill="#ffffff" fill-opacity="1.00" />			<path d="M-477.161,-573.901 L-509.826,-579.295 L-515.22,-611.96 L-520.613,-579.295 L-553.278,-573.901 L-520.613,-568.507 L-515.22,-535.842 L-509.826,-568.507 L-477.161,-573.901 Z " fill="#f4dd4c" fill-opacity="1.00" />			<path d="M-345.892,-414.6 L-378.557,-419.994 L-383.95,-452.659 L-389.344,-419.994 L-422.009,-414.6 L-389.344,-409.207 L-383.95,-376.542 L-378.557,-409.207 L-345.892,-414.6 Z " fill="#f4dd4c" fill-opacity="1.00" />			<path d="M-269.774,-277.882 L-302.439,-283.276 L-307.833,-315.941 L-313.227,-283.276 L-345.892,-277.882 L-313.227,-272.489 L-307.833,-239.824 L-302.439,-272.489 L-269.774,-277.882 Z " fill="#f4dd4c" fill-opacity="1.00" />			<path d="M-210.456,-531.385 L-243.121,-536.779 L-248.515,-569.444 L-253.909,-536.779 L-286.573,-531.385 L-253.909,-525.991 L-248.515,-493.327 L-243.121,-525.991 L-210.456,-531.385 Z " fill="#f4dd4c" fill-opacity="1.00" />			<path d="M-734.508,-515.22 L-740.273,-480.307 L-775.186,-474.542 L-740.273,-468.777 L-734.508,-433.865 L-728.743,-468.777 L-693.83,-474.542 L-728.743,-480.307 L-734.508,-515.22 Z " fill="#f4dd4c" fill-opacity="1.00" />			<path d="M96.5336,-611.96 L63.8686,-617.353 L58.4749,-650.018 L53.0813,-617.353 L20.4163,-611.96 L53.0813,-606.566 L58.4749,-573.901 L63.8686,-606.566 L96.5336,-611.96 Z " fill="#f4dd4c" fill-opacity="1.00" />		</g>	</svg>