<svg id="svg" version="1.1" xmlns="http://www.w3.org/2000/svg" xmlns:xlink="http://www.w3.org/1999/xlink" width="400" height="58.984375" viewBox="0, 0, 400,58.984375"><g id="svgg"><path id="path0" d="M391.460 7.285 C 391.668 7.324,391.968 7.323,392.127 7.281 C 392.286 7.239,392.117 7.207,391.750 7.209 C 391.383 7.211,391.253 7.245,391.460 7.285 M326.542 8.448 C 326.702 8.490,326.965 8.490,327.125 8.448 C 327.285 8.406,327.154 8.372,326.833 8.372 C 326.512 8.372,326.381 8.406,326.542 8.448 M261.708 9.615 C 261.869 9.657,262.131 9.657,262.292 9.615 C 262.452 9.573,262.321 9.539,262.000 9.539 C 261.679 9.539,261.548 9.573,261.708 9.615 M196.875 10.782 C 197.035 10.823,197.298 10.823,197.458 10.782 C 197.619 10.740,197.487 10.705,197.167 10.705 C 196.846 10.705,196.715 10.740,196.875 10.782 M131.960 11.951 C 132.168 11.991,132.468 11.990,132.627 11.948 C 132.786 11.906,132.617 11.874,132.250 11.875 C 131.883 11.877,131.753 11.911,131.960 11.951 M343.794 12.285 C 344.001 12.324,344.301 12.323,344.460 12.281 C 344.620 12.239,344.450 12.207,344.083 12.209 C 343.717 12.211,343.586 12.245,343.794 12.285 M67.127 13.118 C 67.334 13.158,67.634 13.156,67.794 13.115 C 67.953 13.073,67.783 13.040,67.417 13.042 C 67.050 13.044,66.920 13.078,67.127 13.118 M2.294 14.285 C 2.501 14.324,2.801 14.323,2.960 14.281 C 3.120 14.239,2.950 14.207,2.583 14.209 C 2.217 14.211,2.086 14.245,2.294 14.285 M236.167 20.667 C 236.167 20.758,235.829 20.833,235.417 20.833 C 234.861 20.833,234.667 20.898,234.667 21.083 C 234.667 21.258,234.491 21.333,234.083 21.333 C 233.762 21.333,233.500 21.408,233.500 21.500 C 233.500 21.592,233.317 21.667,233.093 21.667 C 232.869 21.667,232.640 21.742,232.583 21.833 C 232.527 21.925,232.335 22.000,232.157 22.000 C 231.979 22.000,231.833 22.113,231.833 22.250 C 231.833 22.391,231.684 22.500,231.492 22.500 C 231.138 22.500,230.333 23.189,230.333 23.492 C 230.333 23.588,230.188 23.667,230.011 23.667 C 229.834 23.667,229.642 23.817,229.583 24.000 C 229.525 24.183,229.408 24.333,229.322 24.333 C 229.237 24.333,229.167 24.404,229.167 24.491 C 229.167 24.578,228.979 24.852,228.750 25.099 C 228.521 25.346,228.333 25.725,228.333 25.941 C 228.333 26.157,228.258 26.333,228.167 26.333 C 228.075 26.333,228.000 26.113,228.000 25.843 C 228.000 25.574,228.075 25.307,228.167 25.250 C 228.258 25.193,228.333 24.776,228.333 24.323 C 228.333 23.871,228.408 23.500,228.500 23.500 C 228.594 23.500,228.667 23.028,228.667 22.417 L 228.667 21.333 225.167 21.333 C 221.813 21.333,221.667 21.347,221.667 21.657 C 221.667 21.835,221.592 22.027,221.500 22.083 C 221.408 22.140,221.333 22.594,221.333 23.093 C 221.333 23.592,221.258 24.000,221.167 24.000 C 221.075 24.000,221.000 24.415,221.000 24.922 C 221.000 25.588,220.931 25.870,220.750 25.940 C 220.581 26.005,220.500 26.270,220.500 26.758 C 220.500 27.155,220.425 27.527,220.333 27.583 C 220.242 27.640,220.167 28.094,220.167 28.593 C 220.167 29.092,220.092 29.500,220.000 29.500 C 219.908 29.500,219.833 29.904,219.833 30.399 C 219.833 31.044,219.763 31.325,219.583 31.394 C 219.403 31.463,219.333 31.746,219.333 32.411 C 219.333 32.918,219.258 33.333,219.167 33.333 C 219.075 33.333,219.000 33.676,219.000 34.095 C 219.000 34.550,218.899 34.958,218.750 35.107 C 218.604 35.253,218.500 35.660,218.500 36.085 C 218.500 36.486,218.425 36.860,218.333 36.917 C 218.242 36.973,218.167 37.428,218.167 37.927 C 218.167 38.425,218.092 38.833,218.000 38.833 C 217.908 38.833,217.831 39.077,217.828 39.375 C 217.825 39.673,217.713 40.062,217.578 40.240 C 217.443 40.418,217.333 40.770,217.333 41.022 C 217.333 41.274,217.258 41.527,217.167 41.583 C 217.075 41.640,217.000 41.844,217.000 42.036 C 217.000 42.228,216.813 42.631,216.583 42.931 C 216.354 43.232,216.167 43.529,216.167 43.592 C 216.167 43.777,215.102 44.661,214.875 44.664 C 214.760 44.665,214.667 44.742,214.667 44.833 C 214.667 44.925,214.446 45.000,214.177 45.000 C 213.907 45.000,213.640 45.075,213.583 45.167 C 213.523 45.265,212.526 45.333,211.157 45.333 C 209.719 45.333,208.833 45.270,208.833 45.167 C 208.833 45.075,208.652 45.000,208.431 45.000 C 208.209 45.000,208.003 44.941,207.972 44.869 C 207.942 44.797,207.673 44.567,207.375 44.358 C 207.077 44.148,206.833 43.870,206.833 43.739 C 206.833 43.607,206.758 43.500,206.667 43.500 C 206.575 43.500,206.500 43.322,206.500 43.104 C 206.500 42.886,206.387 42.614,206.250 42.500 C 206.109 42.383,206.000 42.019,206.000 41.664 C 206.000 41.259,206.089 41.002,206.250 40.940 C 206.426 40.872,206.500 40.598,206.500 40.015 C 206.500 39.559,206.575 39.140,206.667 39.083 C 206.758 39.027,206.833 38.572,206.833 38.073 C 206.833 37.575,206.908 37.167,207.000 37.167 C 207.092 37.167,207.167 36.762,207.167 36.268 C 207.167 35.623,207.237 35.342,207.417 35.273 C 207.593 35.206,207.667 34.931,207.667 34.348 C 207.667 33.893,207.742 33.473,207.833 33.417 C 207.925 33.360,208.000 32.943,208.000 32.490 C 208.000 32.037,208.075 31.667,208.167 31.667 C 208.258 31.667,208.333 31.262,208.333 30.768 C 208.333 30.123,208.404 29.842,208.583 29.773 C 208.764 29.704,208.833 29.421,208.833 28.755 C 208.833 28.248,208.908 27.833,209.000 27.833 C 209.092 27.833,209.167 27.463,209.167 27.010 C 209.167 26.557,209.242 26.140,209.333 26.083 C 209.425 26.027,209.500 25.618,209.500 25.175 C 209.500 24.612,209.575 24.340,209.750 24.273 C 209.931 24.204,210.000 23.921,210.000 23.255 C 210.000 22.748,210.075 22.333,210.167 22.333 C 210.258 22.333,210.333 22.108,210.333 21.833 L 210.333 21.333 206.667 21.333 L 203.000 21.333 203.000 22.012 C 203.000 22.393,202.890 22.800,202.750 22.940 C 202.595 23.095,202.500 23.504,202.500 24.012 C 202.500 24.464,202.425 24.833,202.333 24.833 C 202.242 24.833,202.167 25.246,202.167 25.750 C 202.167 26.254,202.092 26.667,202.000 26.667 C 201.908 26.667,201.833 27.032,201.833 27.480 C 201.833 27.999,201.743 28.367,201.583 28.500 C 201.432 28.626,201.333 28.991,201.333 29.427 C 201.333 29.823,201.258 30.193,201.167 30.250 C 201.075 30.307,201.000 30.761,201.000 31.260 C 201.000 32.190,200.843 32.367,200.405 31.929 C 200.238 31.762,200.167 31.289,200.167 30.345 C 200.167 29.560,200.097 29.000,200.000 29.000 C 199.908 29.000,199.833 28.698,199.833 28.328 C 199.833 27.885,199.748 27.624,199.583 27.560 C 199.446 27.508,199.333 27.285,199.333 27.066 C 199.333 26.846,199.258 26.667,199.167 26.667 C 199.075 26.667,199.000 26.517,199.000 26.333 C 199.000 26.150,198.925 26.000,198.833 26.000 C 198.742 26.000,198.667 25.887,198.667 25.750 C 198.667 25.613,198.554 25.500,198.417 25.500 C 198.279 25.500,198.167 25.424,198.167 25.331 C 198.167 25.034,197.424 24.004,197.208 24.002 C 197.094 24.001,197.000 23.925,197.000 23.833 C 197.000 23.742,196.850 23.667,196.667 23.667 C 196.481 23.667,196.333 23.556,196.333 23.417 C 196.333 23.279,196.221 23.167,196.083 23.167 C 195.946 23.167,195.833 23.092,195.833 23.000 C 195.833 22.908,195.683 22.833,195.500 22.833 C 195.317 22.833,195.167 22.758,195.167 22.667 C 195.167 22.575,194.987 22.500,194.768 22.500 C 194.548 22.500,194.326 22.387,194.273 22.250 C 194.220 22.113,194.029 22.000,193.848 22.000 C 193.668 22.000,193.473 21.925,193.417 21.833 C 193.360 21.742,192.948 21.667,192.500 21.667 C 192.052 21.667,191.640 21.592,191.583 21.500 C 191.517 21.393,188.888 21.333,184.242 21.333 C 175.899 21.333,176.333 21.254,176.333 22.787 C 176.333 23.271,176.258 23.667,176.167 23.667 C 176.075 23.667,176.000 24.079,176.000 24.583 C 176.000 25.087,175.925 25.500,175.833 25.500 C 175.742 25.500,175.667 25.866,175.667 26.313 C 175.667 26.832,175.576 27.201,175.417 27.333 C 175.257 27.466,175.167 27.834,175.167 28.354 C 175.167 28.801,175.092 29.167,175.000 29.167 C 174.908 29.167,174.833 29.579,174.833 30.083 C 174.833 30.587,174.758 31.000,174.667 31.000 C 174.574 31.000,174.500 31.444,174.500 32.000 C 174.500 32.778,174.444 33.000,174.250 33.000 C 174.058 33.000,174.000 33.213,174.000 33.917 C 174.000 34.421,173.925 34.833,173.833 34.833 C 173.742 34.833,173.667 35.208,173.667 35.667 C 173.667 36.125,173.592 36.500,173.500 36.500 C 173.408 36.500,173.333 36.915,173.333 37.422 C 173.333 38.088,173.264 38.370,173.083 38.440 C 172.904 38.509,172.833 38.789,172.833 39.434 C 172.833 39.929,172.758 40.333,172.667 40.333 C 172.574 40.333,172.500 40.778,172.500 41.333 C 172.500 41.889,172.426 42.333,172.333 42.333 C 172.242 42.333,172.167 42.662,172.167 43.063 C 172.167 43.508,172.069 43.873,171.917 44.000 C 171.757 44.133,171.667 44.501,171.667 45.020 C 171.667 45.468,171.592 45.833,171.500 45.833 C 171.407 45.833,171.333 46.278,171.333 46.833 C 171.333 47.389,171.259 47.833,171.167 47.833 C 171.075 47.833,171.000 48.246,171.000 48.750 C 171.000 49.454,170.942 49.667,170.750 49.667 C 170.575 49.667,170.500 49.843,170.500 50.250 L 170.500 50.833 178.990 50.833 C 184.470 50.833,187.517 50.774,187.583 50.667 C 187.640 50.575,188.011 50.500,188.409 50.500 C 188.897 50.500,189.162 50.419,189.227 50.250 C 189.283 50.104,189.533 50.000,189.828 50.000 C 190.106 50.000,190.333 49.925,190.333 49.833 C 190.333 49.742,190.521 49.667,190.750 49.667 C 190.979 49.667,191.167 49.592,191.167 49.500 C 191.167 49.408,191.319 49.333,191.505 49.333 C 191.691 49.333,191.887 49.221,191.940 49.083 C 191.992 48.946,192.178 48.833,192.351 48.833 C 192.525 48.833,192.667 48.758,192.667 48.667 C 192.667 48.575,192.779 48.500,192.917 48.500 C 193.054 48.500,193.167 48.425,193.167 48.333 C 193.167 48.242,193.299 48.167,193.460 48.167 C 193.621 48.167,193.977 47.906,194.252 47.587 C 194.526 47.268,194.844 47.006,194.958 47.004 C 195.073 47.002,195.167 46.920,195.167 46.821 C 195.167 46.592,195.501 46.263,195.879 46.119 C 196.041 46.058,196.224 45.875,196.284 45.712 C 196.344 45.550,196.530 45.295,196.697 45.147 C 196.864 44.999,197.000 44.718,197.000 44.522 C 197.000 44.327,197.080 44.167,197.179 44.167 C 197.409 44.167,197.833 43.743,197.833 43.512 C 197.833 43.414,197.908 43.333,198.000 43.333 C 198.092 43.333,198.167 43.116,198.167 42.851 C 198.167 42.576,198.274 42.328,198.417 42.273 C 198.554 42.220,198.667 42.025,198.667 41.839 C 198.667 41.652,198.742 41.500,198.833 41.500 C 198.934 41.500,199.000 42.224,199.000 43.339 C 199.000 44.819,199.049 45.196,199.250 45.273 C 199.387 45.326,199.500 45.548,199.500 45.768 C 199.500 45.987,199.575 46.167,199.667 46.167 C 199.758 46.167,199.836 46.373,199.839 46.625 C 199.844 47.125,200.176 47.667,200.477 47.667 C 200.581 47.667,200.667 47.745,200.667 47.841 C 200.667 48.067,201.433 48.833,201.659 48.833 C 201.755 48.833,201.833 48.914,201.833 49.012 C 201.833 49.306,202.286 49.667,202.655 49.667 C 202.845 49.667,203.000 49.742,203.000 49.833 C 203.000 49.925,203.142 50.000,203.316 50.000 C 203.489 50.000,203.674 50.112,203.727 50.250 C 203.780 50.387,203.975 50.500,204.161 50.500 C 204.348 50.500,204.500 50.575,204.500 50.667 C 204.500 50.758,204.762 50.833,205.083 50.833 C 205.404 50.833,205.667 50.908,205.667 51.000 C 205.667 51.093,206.111 51.167,206.667 51.167 C 207.444 51.167,207.667 51.222,207.667 51.417 C 207.667 51.630,208.138 51.667,210.905 51.667 C 213.561 51.667,214.188 51.622,214.393 51.417 C 214.542 51.267,214.950 51.167,215.405 51.167 C 215.824 51.167,216.167 51.092,216.167 51.000 C 216.167 50.908,216.429 50.833,216.750 50.833 C 217.071 50.833,217.333 50.758,217.333 50.667 C 217.333 50.575,217.521 50.500,217.750 50.500 C 218.009 50.500,218.167 50.406,218.167 50.250 C 218.167 50.094,218.324 50.000,218.583 50.000 C 218.813 50.000,219.000 49.925,219.000 49.833 C 219.000 49.742,219.108 49.667,219.240 49.667 C 219.372 49.667,219.823 49.329,220.241 48.917 C 220.660 48.504,221.077 48.167,221.168 48.167 C 221.259 48.167,221.333 48.092,221.333 48.000 C 221.333 47.909,221.596 47.556,221.917 47.216 C 222.237 46.876,222.500 46.500,222.500 46.382 C 222.500 46.264,222.575 46.167,222.667 46.167 C 222.758 46.167,222.833 45.979,222.833 45.750 C 222.833 45.521,222.908 45.333,223.000 45.333 C 223.092 45.333,223.167 45.183,223.167 45.000 C 223.167 44.815,223.278 44.667,223.417 44.667 C 223.572 44.667,223.667 44.509,223.667 44.250 C 223.667 44.021,223.742 43.833,223.833 43.833 C 223.925 43.833,224.000 43.571,224.000 43.250 C 224.000 42.929,224.070 42.667,224.157 42.667 C 224.243 42.667,224.343 42.385,224.379 42.042 C 224.415 41.698,224.457 42.035,224.472 42.792 C 224.488 43.579,224.571 44.167,224.667 44.167 C 224.758 44.167,224.833 44.500,224.833 44.907 C 224.833 45.314,224.908 45.693,225.000 45.750 C 225.092 45.807,225.167 45.999,225.167 46.177 C 225.167 46.354,225.279 46.500,225.417 46.500 C 225.572 46.500,225.667 46.657,225.667 46.917 C 225.667 47.146,225.742 47.333,225.833 47.333 C 225.925 47.333,226.000 47.427,226.001 47.542 C 226.002 47.848,227.396 49.333,227.682 49.333 C 227.816 49.333,228.035 49.483,228.167 49.667 C 228.299 49.850,228.578 50.000,228.787 50.000 C 229.013 50.000,229.167 50.101,229.167 50.250 C 229.167 50.404,229.323 50.500,229.573 50.500 C 229.797 50.500,230.027 50.575,230.083 50.667 C 230.140 50.758,230.407 50.833,230.677 50.833 C 230.946 50.833,231.167 50.908,231.167 51.000 C 231.167 51.092,231.570 51.167,232.063 51.167 C 232.656 51.167,233.029 51.251,233.167 51.417 C 233.338 51.623,233.926 51.667,236.509 51.667 C 239.072 51.667,239.688 51.621,239.893 51.417 C 240.042 51.267,240.450 51.167,240.905 51.167 C 241.324 51.167,241.667 51.092,241.667 51.000 C 241.667 50.908,241.929 50.833,242.250 50.833 C 242.571 50.833,242.833 50.758,242.833 50.667 C 242.833 50.575,243.016 50.500,243.240 50.500 C 243.464 50.500,243.692 50.427,243.747 50.338 C 243.802 50.249,244.126 50.046,244.465 49.888 C 244.805 49.730,245.121 49.555,245.167 49.500 C 245.213 49.444,245.550 49.178,245.917 48.908 C 246.758 48.288,247.000 48.060,247.000 47.885 C 247.000 47.809,247.188 47.544,247.417 47.297 C 247.646 47.050,247.833 46.770,247.833 46.674 C 247.833 46.578,247.908 46.500,248.000 46.500 C 248.092 46.500,248.167 46.237,248.167 45.917 C 248.167 45.509,248.242 45.333,248.417 45.333 C 248.554 45.333,248.667 45.188,248.667 45.010 C 248.667 44.832,248.742 44.640,248.833 44.583 C 248.933 44.522,249.000 43.418,249.000 41.833 C 249.000 40.248,248.933 39.145,248.833 39.083 C 248.742 39.027,248.667 38.760,248.667 38.490 C 248.667 38.166,248.582 38.000,248.417 38.000 C 248.261 38.000,248.167 37.843,248.167 37.583 C 248.167 37.354,248.092 37.167,248.000 37.167 C 247.908 37.167,247.833 37.054,247.833 36.917 C 247.833 36.548,246.554 35.333,246.167 35.333 C 245.983 35.333,245.833 35.248,245.833 35.143 C 245.833 34.887,245.319 34.512,244.958 34.505 C 244.798 34.502,244.667 34.425,244.667 34.333 C 244.667 34.242,244.412 34.167,244.101 34.167 C 243.752 34.167,243.499 34.071,243.440 33.917 C 243.384 33.771,243.134 33.667,242.839 33.667 C 242.561 33.667,242.333 33.592,242.333 33.500 C 242.333 33.408,242.071 33.333,241.750 33.333 C 241.429 33.333,241.167 33.258,241.167 33.167 C 241.167 33.075,240.801 33.000,240.354 33.000 C 239.834 33.000,239.466 32.910,239.333 32.750 C 239.219 32.612,238.914 32.500,238.656 32.500 C 238.398 32.500,238.140 32.425,238.083 32.333 C 238.027 32.242,237.722 32.167,237.407 32.167 C 237.091 32.167,236.833 32.092,236.833 32.000 C 236.833 31.908,236.683 31.833,236.500 31.833 C 236.315 31.833,236.167 31.722,236.167 31.583 C 236.167 31.446,236.054 31.333,235.917 31.333 C 235.779 31.333,235.667 31.258,235.667 31.167 C 235.667 31.075,235.517 31.000,235.333 31.000 C 235.150 31.000,235.000 30.897,235.000 30.770 C 235.000 30.644,234.887 30.447,234.750 30.333 C 234.612 30.219,234.500 29.991,234.500 29.827 C 234.500 29.662,234.406 29.490,234.292 29.444 C 234.125 29.376,234.125 29.357,234.292 29.346 C 234.426 29.338,234.500 29.065,234.500 28.583 C 234.500 28.047,234.567 27.833,234.736 27.833 C 234.866 27.833,234.997 27.774,235.028 27.701 C 235.136 27.444,236.286 26.667,236.557 26.667 C 236.709 26.667,236.833 26.592,236.833 26.500 C 236.833 26.397,237.663 26.333,238.990 26.333 C 240.248 26.333,241.190 26.403,241.250 26.500 C 241.307 26.592,241.499 26.667,241.677 26.667 C 241.854 26.667,242.000 26.742,242.000 26.833 C 242.000 26.925,242.188 27.000,242.417 27.000 C 242.646 27.000,242.833 27.096,242.833 27.213 C 242.833 27.330,242.983 27.535,243.167 27.667 C 243.350 27.799,243.500 28.069,243.500 28.266 C 243.500 28.464,243.612 28.719,243.750 28.833 C 243.910 28.966,244.000 29.335,244.000 29.857 L 244.000 30.674 247.357 30.628 C 251.041 30.579,251.310 30.503,250.874 29.636 C 250.767 29.424,250.658 28.744,250.631 28.125 L 250.583 26.999 254.583 27.005 C 257.382 27.009,258.496 27.061,258.292 27.180 C 258.077 27.305,258.000 27.565,258.000 28.165 C 258.000 28.613,257.925 29.027,257.833 29.083 C 257.742 29.140,257.667 29.594,257.667 30.093 C 257.667 30.592,257.592 31.000,257.500 31.000 C 257.407 31.000,257.333 31.444,257.333 32.000 C 257.333 32.778,257.278 33.000,257.083 33.000 C 256.894 33.000,256.833 33.204,256.833 33.833 C 256.833 34.292,256.758 34.667,256.667 34.667 C 256.575 34.667,256.500 35.047,256.500 35.512 C 256.500 36.041,256.406 36.451,256.250 36.607 C 256.095 36.762,256.000 37.171,256.000 37.679 C 256.000 38.130,255.925 38.500,255.833 38.500 C 255.742 38.500,255.667 38.912,255.667 39.417 C 255.667 39.921,255.592 40.333,255.500 40.333 C 255.408 40.333,255.331 40.690,255.328 41.125 C 255.325 41.560,255.213 42.062,255.078 42.240 C 254.943 42.418,254.833 42.882,254.833 43.272 C 254.833 43.662,254.758 44.027,254.667 44.083 C 254.575 44.140,254.500 44.557,254.500 45.010 C 254.500 45.463,254.425 45.833,254.333 45.833 C 254.241 45.833,254.167 46.272,254.167 46.816 C 254.167 47.535,254.100 47.823,253.917 47.894 C 253.740 47.961,253.667 48.236,253.667 48.828 C 253.667 49.289,253.592 49.667,253.500 49.667 C 253.408 49.667,253.333 49.929,253.333 50.250 L 253.333 50.833 257.000 50.833 L 260.667 50.833 260.667 50.101 C 260.667 49.604,260.747 49.338,260.917 49.273 C 261.097 49.204,261.167 48.921,261.167 48.255 C 261.167 47.748,261.242 47.333,261.333 47.333 C 261.426 47.333,261.500 46.889,261.500 46.333 C 261.500 45.778,261.574 45.333,261.667 45.333 C 261.758 45.333,261.833 45.005,261.833 44.604 C 261.833 44.159,261.931 43.793,262.083 43.667 C 262.243 43.534,262.333 43.166,262.333 42.646 C 262.333 42.199,262.408 41.833,262.500 41.833 C 262.592 41.833,262.667 41.430,262.667 40.937 C 262.667 40.344,262.751 39.971,262.917 39.833 C 263.076 39.701,263.167 39.332,263.167 38.813 C 263.167 38.366,263.242 38.000,263.333 38.000 C 263.425 38.000,263.500 37.629,263.500 37.177 C 263.500 36.724,263.575 36.307,263.667 36.250 C 263.758 36.193,263.836 35.795,263.839 35.365 C 263.842 34.935,263.954 34.438,264.089 34.260 C 264.223 34.082,264.333 33.613,264.333 33.218 C 264.333 32.823,264.408 32.500,264.500 32.500 C 264.592 32.500,264.667 32.092,264.667 31.593 C 264.667 31.094,264.742 30.640,264.833 30.583 C 264.925 30.527,265.000 30.119,265.000 29.677 C 265.000 29.167,265.091 28.799,265.250 28.667 C 265.403 28.540,265.500 28.175,265.500 27.730 L 265.500 27.000 269.458 27.005 C 272.229 27.009,273.329 27.061,273.125 27.180 C 272.910 27.305,272.833 27.565,272.833 28.165 C 272.833 28.613,272.758 29.027,272.667 29.083 C 272.575 29.140,272.500 29.594,272.500 30.093 C 272.500 30.592,272.425 31.000,272.333 31.000 C 272.242 31.000,272.167 31.366,272.167 31.813 C 272.167 32.332,272.076 32.701,271.917 32.833 C 271.765 32.959,271.667 33.324,271.667 33.761 C 271.667 34.156,271.592 34.527,271.500 34.583 C 271.408 34.640,271.333 35.094,271.333 35.593 C 271.333 36.092,271.258 36.500,271.167 36.500 C 271.075 36.500,271.000 36.915,271.000 37.422 C 271.000 38.088,270.931 38.370,270.750 38.440 C 270.571 38.509,270.500 38.789,270.500 39.434 C 270.500 39.929,270.425 40.333,270.333 40.333 C 270.242 40.333,270.167 40.704,270.167 41.157 C 270.167 41.610,270.092 42.027,270.000 42.083 C 269.908 42.140,269.833 42.548,269.833 42.989 C 269.833 43.500,269.742 43.868,269.583 44.000 C 269.424 44.133,269.333 44.501,269.333 45.020 C 269.333 45.468,269.258 45.833,269.167 45.833 C 269.074 45.833,269.000 46.272,269.000 46.816 C 269.000 47.535,268.933 47.823,268.750 47.894 C 268.574 47.961,268.500 48.235,268.500 48.818 C 268.500 49.274,268.425 49.693,268.333 49.750 C 268.242 49.807,268.167 50.074,268.167 50.343 L 268.167 50.833 271.816 50.833 C 275.900 50.833,275.667 50.910,275.667 49.570 C 275.667 49.165,275.742 48.833,275.833 48.833 C 275.925 48.833,276.000 48.421,276.000 47.917 C 276.000 47.413,276.075 47.000,276.167 47.000 C 276.258 47.000,276.333 46.634,276.333 46.187 C 276.333 45.668,276.424 45.299,276.583 45.167 C 276.735 45.041,276.833 44.676,276.833 44.239 C 276.833 43.844,276.908 43.473,277.000 43.417 C 277.092 43.360,277.167 42.906,277.167 42.407 C 277.167 41.908,277.242 41.500,277.333 41.500 C 277.426 41.500,277.500 41.056,277.500 40.500 L 277.500 39.500 281.012 39.500 C 283.911 39.500,284.567 39.544,284.774 39.750 C 284.911 39.888,285.206 40.000,285.429 40.000 C 285.651 40.000,285.833 40.066,285.833 40.147 C 285.833 40.228,285.983 40.334,286.167 40.382 C 286.350 40.430,286.500 40.588,286.500 40.734 C 286.500 40.880,286.570 41.000,286.654 41.000 C 287.224 41.000,287.703 45.752,287.167 46.083 C 287.071 46.142,287.000 47.002,287.000 48.093 C 287.000 49.253,287.065 50.000,287.167 50.000 C 287.258 50.000,287.333 50.188,287.333 50.417 L 287.333 50.833 294.333 50.833 L 301.333 50.833 301.333 50.268 C 301.333 49.937,301.430 49.665,301.566 49.613 C 301.703 49.561,301.841 49.172,301.900 48.678 C 301.955 48.214,302.045 47.458,302.099 47.000 C 302.154 46.542,302.267 46.167,302.349 46.167 C 302.432 46.167,302.500 45.725,302.500 45.184 C 302.500 44.465,302.567 44.177,302.750 44.106 C 302.926 44.039,303.000 43.765,303.000 43.182 C 303.000 42.726,303.075 42.307,303.167 42.250 C 303.258 42.193,303.333 41.818,303.333 41.417 C 303.333 41.015,303.408 40.640,303.500 40.583 C 303.592 40.527,303.667 40.104,303.667 39.645 C 303.667 39.125,303.761 38.715,303.917 38.560 C 304.064 38.413,304.167 38.005,304.167 37.571 C 304.167 37.165,304.242 36.833,304.333 36.833 C 304.425 36.833,304.500 36.425,304.500 35.927 C 304.500 35.428,304.575 34.973,304.667 34.917 C 304.758 34.860,304.836 34.499,304.839 34.115 C 304.842 33.731,304.954 33.271,305.089 33.093 C 305.223 32.915,305.333 32.446,305.333 32.051 C 305.333 31.656,305.408 31.333,305.500 31.333 C 305.593 31.333,305.667 30.889,305.667 30.333 C 305.667 29.778,305.741 29.333,305.833 29.333 C 305.925 29.333,306.000 28.966,306.000 28.518 C 306.000 27.947,306.075 27.674,306.250 27.606 C 306.426 27.539,306.500 27.264,306.500 26.672 C 306.500 26.211,306.575 25.833,306.667 25.833 C 306.758 25.833,306.833 25.421,306.833 24.917 C 306.833 24.412,306.908 24.000,307.000 24.000 C 307.093 24.000,307.167 23.556,307.167 23.000 C 307.167 22.222,307.222 22.000,307.417 22.000 C 307.556 22.000,307.667 21.852,307.667 21.667 C 307.667 21.343,307.556 21.333,303.917 21.333 L 300.167 21.333 300.167 21.917 C 300.167 22.238,300.092 22.500,300.000 22.500 C 299.908 22.500,299.833 22.912,299.833 23.417 C 299.833 23.921,299.758 24.333,299.667 24.333 C 299.575 24.333,299.500 24.699,299.500 25.146 C 299.500 25.666,299.410 26.034,299.250 26.167 C 299.090 26.299,299.000 26.668,299.000 27.187 C 299.000 27.634,298.925 28.000,298.833 28.000 C 298.742 28.000,298.667 28.412,298.667 28.917 C 298.667 29.421,298.592 29.833,298.500 29.833 C 298.407 29.833,298.333 30.278,298.333 30.833 C 298.333 31.611,298.278 31.833,298.083 31.833 C 297.891 31.833,297.833 32.046,297.833 32.750 C 297.833 33.254,297.758 33.667,297.667 33.667 C 297.575 33.667,297.500 34.042,297.500 34.500 C 297.500 34.958,297.425 35.333,297.333 35.333 C 297.242 35.333,297.167 35.748,297.167 36.255 C 297.167 36.921,297.097 37.204,296.917 37.273 C 296.737 37.342,296.667 37.623,296.667 38.268 C 296.667 38.762,296.592 39.167,296.500 39.167 C 296.408 39.167,296.333 39.575,296.333 40.073 C 296.333 40.572,296.258 41.027,296.167 41.083 C 296.075 41.140,296.000 41.510,296.000 41.906 C 296.000 42.343,295.902 42.708,295.750 42.833 C 295.590 42.966,295.500 43.334,295.500 43.854 C 295.500 44.301,295.425 44.667,295.333 44.667 C 295.241 44.667,295.167 45.111,295.167 45.667 C 295.167 46.222,295.093 46.667,295.000 46.667 C 294.908 46.667,294.833 47.079,294.833 47.583 C 294.833 48.287,294.775 48.500,294.583 48.500 C 294.402 48.500,294.333 48.686,294.333 49.177 C 294.333 49.585,294.267 49.812,294.167 49.750 C 294.062 49.685,294.000 47.810,294.000 44.675 C 294.000 40.409,293.964 39.689,293.750 39.606 C 293.604 39.550,293.500 39.301,293.500 39.005 C 293.500 38.727,293.425 38.500,293.333 38.500 C 293.242 38.500,293.167 38.420,293.167 38.321 C 293.167 38.091,292.743 37.667,292.512 37.667 C 292.414 37.667,292.333 37.479,292.333 37.250 C 292.333 36.917,292.417 36.833,292.750 36.833 C 292.979 36.833,293.167 36.758,293.167 36.667 C 293.167 36.575,293.319 36.500,293.505 36.500 C 293.691 36.500,293.887 36.388,293.940 36.250 C 293.992 36.112,294.137 36.000,294.260 36.000 C 294.590 36.000,296.333 34.272,296.333 33.945 C 296.333 33.792,296.408 33.667,296.500 33.667 C 296.592 33.667,296.667 33.554,296.667 33.417 C 296.667 33.279,296.742 33.167,296.833 33.167 C 296.925 33.167,297.000 32.942,297.000 32.667 C 297.000 32.333,297.083 32.167,297.250 32.167 C 297.431 32.167,297.500 31.981,297.500 31.500 C 297.500 31.133,297.575 30.833,297.667 30.833 C 297.768 30.833,297.833 30.111,297.833 29.000 C 297.833 27.889,297.768 27.167,297.667 27.167 C 297.575 27.167,297.500 26.827,297.500 26.411 C 297.500 25.894,297.421 25.626,297.250 25.560 C 297.112 25.508,297.000 25.322,297.000 25.149 C 297.000 24.975,296.925 24.833,296.833 24.833 C 296.742 24.833,296.667 24.678,296.667 24.488 C 296.667 24.119,296.306 23.667,296.012 23.667 C 295.914 23.667,295.833 23.588,295.833 23.492 C 295.833 22.973,293.791 21.667,292.980 21.667 C 292.808 21.667,292.667 21.592,292.667 21.500 C 292.667 21.390,285.478 21.333,271.434 21.333 L 250.202 21.333 250.101 22.000 C 250.045 22.367,249.958 22.985,249.907 23.375 C 249.856 23.765,249.749 24.233,249.669 24.417 C 249.590 24.600,249.487 24.863,249.442 25.000 C 249.392 25.151,249.354 25.099,249.346 24.867 C 249.333 24.476,248.655 23.667,248.341 23.667 C 248.245 23.667,248.167 23.588,248.167 23.492 C 248.167 23.276,247.405 22.500,247.192 22.500 C 247.106 22.500,246.992 22.387,246.940 22.250 C 246.887 22.113,246.729 22.000,246.589 22.000 C 246.448 22.000,246.333 21.925,246.333 21.833 C 246.333 21.742,246.146 21.667,245.917 21.667 C 245.688 21.667,245.500 21.592,245.500 21.500 C 245.500 21.408,245.237 21.333,244.917 21.333 C 244.509 21.333,244.333 21.258,244.333 21.083 C 244.333 20.894,244.130 20.833,243.500 20.833 C 243.042 20.833,242.667 20.758,242.667 20.667 C 242.667 20.561,241.472 20.500,239.417 20.500 C 237.361 20.500,236.167 20.561,236.167 20.667 M338.500 20.667 C 338.500 20.758,338.172 20.833,337.770 20.833 C 337.325 20.833,336.960 20.931,336.833 21.083 C 336.719 21.221,336.452 21.333,336.239 21.333 C 336.027 21.333,335.807 21.408,335.750 21.500 C 335.693 21.592,335.426 21.667,335.157 21.667 C 334.887 21.667,334.667 21.742,334.667 21.833 C 334.667 21.925,334.562 22.000,334.434 22.000 C 334.307 22.000,334.159 22.113,334.106 22.250 C 334.054 22.387,333.896 22.500,333.755 22.500 C 333.615 22.500,333.500 22.575,333.500 22.667 C 333.500 22.758,333.422 22.833,333.326 22.833 C 333.230 22.833,332.950 23.021,332.703 23.250 C 332.456 23.479,332.159 23.667,332.043 23.667 C 331.928 23.667,331.833 23.817,331.833 24.000 C 331.833 24.183,331.758 24.333,331.667 24.333 C 331.575 24.333,331.500 24.446,331.500 24.583 C 331.500 24.721,331.387 24.833,331.250 24.833 C 331.112 24.833,331.000 24.729,331.000 24.601 C 331.000 24.473,331.112 24.326,331.250 24.273 C 331.431 24.204,331.500 23.921,331.500 23.255 C 331.500 22.748,331.575 22.333,331.667 22.333 C 331.758 22.333,331.833 22.108,331.833 21.833 L 331.833 21.333 320.405 21.333 C 307.685 21.333,308.500 21.254,308.500 22.500 C 308.500 22.892,308.392 23.299,308.250 23.440 C 308.104 23.586,308.000 23.994,308.000 24.419 C 308.000 24.819,307.925 25.193,307.833 25.250 C 307.742 25.307,307.667 25.761,307.667 26.260 C 307.667 26.759,307.592 27.167,307.500 27.167 C 307.408 27.167,307.333 27.571,307.333 28.066 C 307.333 28.711,307.263 28.991,307.083 29.060 C 306.903 29.130,306.833 29.412,306.833 30.078 C 306.833 30.585,306.758 31.000,306.667 31.000 C 306.575 31.000,306.500 31.366,306.500 31.813 C 306.500 32.332,306.410 32.701,306.250 32.833 C 306.098 32.959,306.000 33.324,306.000 33.761 C 306.000 34.156,305.925 34.527,305.833 34.583 C 305.742 34.640,305.667 35.094,305.667 35.593 C 305.667 36.092,305.592 36.500,305.500 36.500 C 305.408 36.500,305.333 36.903,305.333 37.396 C 305.333 37.990,305.249 38.363,305.083 38.500 C 304.924 38.633,304.833 39.001,304.833 39.520 C 304.833 39.968,304.758 40.333,304.667 40.333 C 304.575 40.333,304.500 40.704,304.500 41.157 C 304.500 41.610,304.425 42.027,304.333 42.083 C 304.242 42.140,304.167 42.551,304.167 42.996 C 304.167 43.458,304.084 43.833,303.975 43.870 C 303.869 43.905,303.747 44.361,303.704 44.883 C 303.661 45.406,303.560 45.833,303.479 45.833 C 303.399 45.833,303.333 46.283,303.333 46.833 C 303.333 47.389,303.259 47.833,303.167 47.833 C 303.075 47.833,303.000 48.238,303.000 48.732 C 303.000 49.377,302.929 49.658,302.750 49.727 C 302.604 49.783,302.500 50.033,302.500 50.328 L 302.500 50.833 314.250 50.833 L 326.000 50.833 326.000 50.260 C 326.000 49.944,326.075 49.640,326.167 49.583 C 326.258 49.527,326.333 49.080,326.333 48.591 C 326.333 47.970,326.406 47.675,326.574 47.610 C 326.733 47.549,326.833 47.214,326.866 46.634 C 326.919 45.718,327.130 45.529,327.415 46.144 C 327.505 46.340,327.674 46.500,327.790 46.500 C 327.905 46.500,328.000 46.688,328.000 46.917 C 328.000 47.146,328.075 47.333,328.167 47.333 C 328.258 47.333,328.334 47.465,328.334 47.625 C 328.335 47.963,329.619 49.243,330.242 49.527 C 330.476 49.633,330.667 49.783,330.667 49.860 C 330.667 49.937,330.854 50.000,331.083 50.000 C 331.343 50.000,331.500 50.094,331.500 50.250 C 331.500 50.406,331.657 50.500,331.917 50.500 C 332.146 50.500,332.333 50.575,332.333 50.667 C 332.333 50.758,332.596 50.833,332.917 50.833 C 333.237 50.833,333.500 50.908,333.500 51.000 C 333.500 51.092,333.903 51.167,334.396 51.167 C 334.990 51.167,335.363 51.251,335.500 51.417 C 335.807 51.787,341.859 51.787,342.167 51.417 C 342.299 51.257,342.668 51.167,343.187 51.167 C 343.634 51.167,344.000 51.092,344.000 51.000 C 344.000 50.908,344.262 50.833,344.583 50.833 C 344.904 50.833,345.167 50.758,345.167 50.667 C 345.167 50.575,345.311 50.500,345.488 50.500 C 345.665 50.500,345.922 50.387,346.060 50.250 C 346.197 50.113,346.390 50.000,346.488 50.000 C 346.586 50.000,346.667 49.925,346.667 49.833 C 346.667 49.742,346.822 49.667,347.012 49.667 C 347.381 49.667,347.833 49.306,347.833 49.012 C 347.833 48.914,347.983 48.833,348.167 48.833 C 348.350 48.833,348.500 48.758,348.500 48.667 C 348.500 48.575,348.585 48.500,348.690 48.500 C 348.946 48.500,349.321 47.985,349.328 47.625 C 349.331 47.465,349.414 47.333,349.512 47.333 C 349.779 47.333,350.167 46.894,350.167 46.590 C 350.167 46.443,350.279 46.280,350.417 46.227 C 350.554 46.174,350.667 45.952,350.667 45.732 C 350.667 45.513,350.742 45.333,350.833 45.333 C 350.925 45.333,351.000 45.071,351.000 44.750 C 351.000 44.429,351.075 44.167,351.167 44.167 C 351.270 44.167,351.333 43.222,351.333 41.667 C 351.333 40.111,351.270 39.167,351.167 39.167 C 351.075 39.167,351.000 38.904,351.000 38.583 C 351.000 38.262,350.925 38.000,350.833 38.000 C 350.742 38.000,350.667 37.850,350.667 37.667 C 350.667 37.483,350.595 37.333,350.508 37.333 C 350.420 37.333,350.224 37.071,350.072 36.750 C 349.920 36.429,349.691 36.167,349.564 36.167 C 349.437 36.167,349.333 36.081,349.333 35.977 C 349.333 35.721,348.819 35.345,348.458 35.339 C 348.298 35.336,348.167 35.248,348.167 35.143 C 348.167 34.887,347.652 34.512,347.292 34.505 C 347.131 34.502,347.000 34.425,347.000 34.333 C 347.000 34.242,346.770 34.167,346.488 34.167 C 346.207 34.167,345.864 34.054,345.726 33.917 C 345.589 33.779,345.294 33.667,345.071 33.667 C 344.849 33.667,344.667 33.592,344.667 33.500 C 344.667 33.408,344.404 33.333,344.083 33.333 C 343.762 33.333,343.500 33.258,343.500 33.167 C 343.500 33.075,343.096 33.000,342.601 33.000 C 341.956 33.000,341.675 32.929,341.606 32.750 C 341.551 32.605,341.302 32.500,341.015 32.500 C 340.743 32.500,340.473 32.425,340.417 32.333 C 340.360 32.242,340.098 32.167,339.833 32.167 C 339.569 32.167,339.307 32.092,339.250 32.000 C 339.193 31.908,339.001 31.833,338.823 31.833 C 338.646 31.833,338.500 31.760,338.500 31.671 C 338.500 31.582,338.261 31.385,337.968 31.234 C 337.293 30.885,336.846 30.352,336.839 29.889 C 336.836 29.690,336.740 29.494,336.625 29.452 C 336.458 29.392,336.458 29.306,336.625 29.024 C 336.740 28.830,336.833 28.483,336.833 28.252 C 336.833 28.022,336.914 27.833,337.012 27.833 C 337.222 27.833,337.666 27.418,337.668 27.220 C 337.670 27.044,338.480 26.667,338.857 26.667 C 339.016 26.667,339.193 26.592,339.250 26.500 C 339.310 26.403,340.221 26.333,341.417 26.333 C 342.613 26.333,343.524 26.403,343.583 26.500 C 343.640 26.592,343.832 26.667,344.010 26.667 C 344.188 26.667,344.333 26.742,344.333 26.833 C 344.333 26.925,344.521 27.000,344.750 27.000 C 345.009 27.000,345.167 27.094,345.167 27.250 C 345.167 27.387,345.242 27.500,345.333 27.500 C 345.425 27.500,345.500 27.615,345.500 27.755 C 345.500 27.896,345.613 28.054,345.750 28.106 C 345.887 28.159,346.000 28.382,346.000 28.601 C 346.000 28.821,346.075 29.000,346.167 29.000 C 346.258 29.000,346.333 29.377,346.333 29.837 L 346.333 30.674 349.625 30.629 L 352.917 30.583 352.964 28.955 C 353.004 27.615,352.967 27.310,352.756 27.229 C 352.595 27.168,352.500 26.920,352.500 26.566 C 352.500 26.254,352.425 26.000,352.333 26.000 C 352.242 26.000,352.167 25.813,352.167 25.583 C 352.167 25.354,352.097 25.167,352.011 25.167 C 351.926 25.167,351.810 25.022,351.753 24.844 C 351.649 24.516,349.793 22.500,349.595 22.500 C 349.491 22.500,349.267 22.333,348.756 21.875 C 348.628 21.760,348.368 21.667,348.179 21.667 C 347.989 21.667,347.833 21.592,347.833 21.500 C 347.833 21.408,347.571 21.333,347.250 21.333 C 346.843 21.333,346.667 21.258,346.667 21.083 C 346.667 20.899,346.473 20.833,345.927 20.833 C 345.519 20.833,345.140 20.758,345.083 20.667 C 345.020 20.565,343.720 20.500,341.740 20.500 C 339.691 20.500,338.500 20.561,338.500 20.667 M3.000 21.833 C 3.000 22.108,3.075 22.333,3.167 22.333 C 3.258 22.333,3.333 22.521,3.333 22.750 C 3.333 22.979,3.408 23.167,3.500 23.167 C 3.592 23.167,3.667 23.394,3.667 23.672 C 3.667 23.967,3.771 24.217,3.917 24.273 C 4.054 24.326,4.167 24.544,4.167 24.758 C 4.167 24.972,4.242 25.193,4.333 25.250 C 4.425 25.307,4.500 25.574,4.500 25.843 C 4.500 26.113,4.575 26.333,4.667 26.333 C 4.758 26.333,4.833 26.478,4.833 26.655 C 4.833 26.832,4.946 27.089,5.083 27.226 C 5.221 27.364,5.333 27.632,5.333 27.821 C 5.333 28.011,5.408 28.167,5.500 28.167 C 5.592 28.167,5.667 28.387,5.667 28.657 C 5.667 28.926,5.742 29.193,5.833 29.250 C 5.925 29.307,6.000 29.501,6.000 29.682 C 6.000 29.863,6.112 30.054,6.250 30.106 C 6.404 30.166,6.500 30.419,6.500 30.768 C 6.500 31.079,6.575 31.333,6.667 31.333 C 6.758 31.333,6.833 31.521,6.833 31.750 C 6.833 32.009,6.928 32.167,7.083 32.167 C 7.258 32.167,7.333 32.343,7.333 32.750 C 7.333 33.071,7.408 33.333,7.500 33.333 C 7.592 33.333,7.667 33.521,7.667 33.750 C 7.667 33.979,7.742 34.167,7.833 34.167 C 7.925 34.167,8.000 34.394,8.000 34.672 C 8.000 34.967,8.104 35.217,8.250 35.273 C 8.393 35.328,8.500 35.576,8.500 35.851 C 8.500 36.116,8.575 36.333,8.667 36.333 C 8.758 36.333,8.833 36.521,8.833 36.750 C 8.833 36.979,8.908 37.167,9.000 37.167 C 9.092 37.167,9.167 37.394,9.167 37.672 C 9.167 37.967,9.271 38.217,9.417 38.273 C 9.554 38.326,9.667 38.542,9.667 38.754 C 9.667 38.966,9.760 39.173,9.875 39.214 C 10.042 39.275,10.042 39.360,9.875 39.643 C 9.760 39.837,9.667 40.325,9.667 40.727 C 9.667 41.175,9.569 41.540,9.417 41.667 C 9.258 41.799,9.167 42.167,9.167 42.677 C 9.167 43.119,9.092 43.527,9.000 43.583 C 8.908 43.640,8.833 44.094,8.833 44.593 C 8.833 45.092,8.758 45.500,8.667 45.500 C 8.575 45.500,8.500 45.904,8.500 46.399 C 8.500 47.044,8.429 47.325,8.250 47.394 C 8.069 47.463,8.000 47.746,8.000 48.411 C 8.000 48.918,7.925 49.333,7.833 49.333 C 7.742 49.333,7.667 49.671,7.667 50.083 L 7.667 50.833 11.333 50.833 L 15.000 50.833 15.000 49.851 C 15.000 49.132,15.067 48.843,15.250 48.773 C 15.426 48.706,15.500 48.431,15.500 47.848 C 15.500 47.393,15.575 46.973,15.667 46.917 C 15.758 46.860,15.833 46.406,15.833 45.907 C 15.833 45.408,15.908 45.000,16.000 45.000 C 16.092 45.000,16.167 44.561,16.167 44.018 C 16.167 43.299,16.234 43.010,16.417 42.940 C 16.593 42.872,16.667 42.597,16.667 42.005 C 16.667 41.544,16.742 41.167,16.833 41.167 C 16.925 41.167,17.000 40.867,17.000 40.500 C 17.000 40.133,17.075 39.833,17.167 39.833 C 17.258 39.833,17.333 39.683,17.333 39.500 C 17.333 39.317,17.433 39.167,17.555 39.167 C 17.677 39.167,17.877 38.979,18.000 38.750 C 18.123 38.521,18.285 38.333,18.361 38.333 C 18.438 38.333,18.500 38.229,18.500 38.101 C 18.500 37.973,18.613 37.826,18.750 37.773 C 18.888 37.720,19.000 37.579,19.000 37.459 C 19.000 37.339,19.150 37.132,19.333 37.000 C 19.517 36.868,19.667 36.672,19.667 36.564 C 19.667 36.457,19.779 36.326,19.917 36.273 C 20.054 36.220,20.167 36.079,20.167 35.959 C 20.167 35.839,20.317 35.632,20.500 35.500 C 20.683 35.368,20.833 35.164,20.833 35.047 C 20.833 34.929,20.919 34.833,21.023 34.833 C 21.255 34.833,21.654 34.331,21.661 34.030 C 21.668 33.763,22.075 33.333,22.321 33.333 C 22.420 33.333,22.500 33.221,22.500 33.083 C 22.500 32.946,22.575 32.833,22.667 32.833 C 22.758 32.833,22.833 32.738,22.833 32.621 C 22.833 32.505,23.171 32.042,23.583 31.592 C 23.996 31.143,24.333 30.639,24.333 30.471 C 24.333 30.304,24.414 30.167,24.512 30.167 C 24.695 30.167,25.167 29.760,25.167 29.603 C 25.167 29.555,25.354 29.328,25.583 29.098 C 25.813 28.869,26.001 28.585,26.002 28.466 C 26.002 28.347,26.228 28.072,26.503 27.855 C 26.778 27.638,27.121 27.212,27.265 26.909 C 27.613 26.175,28.002 26.026,27.995 26.630 C 27.992 26.879,27.879 27.229,27.745 27.407 C 27.610 27.585,27.500 28.054,27.500 28.449 C 27.500 28.844,27.425 29.167,27.333 29.167 C 27.242 29.167,27.167 29.579,27.167 30.083 C 27.167 30.587,27.092 31.000,27.000 31.000 C 26.907 31.000,26.833 31.444,26.833 32.000 C 26.833 32.778,26.778 33.000,26.583 33.000 C 26.395 33.000,26.333 33.203,26.333 33.823 C 26.333 34.276,26.258 34.693,26.167 34.750 C 26.075 34.807,26.000 35.224,26.000 35.677 C 26.000 36.129,25.925 36.500,25.833 36.500 C 25.741 36.500,25.667 36.944,25.667 37.500 C 25.667 38.278,25.611 38.500,25.417 38.500 C 25.218 38.500,25.167 38.741,25.167 39.667 C 25.167 40.333,25.095 40.833,25.000 40.833 C 24.900 40.833,24.833 41.500,24.833 42.500 C 24.833 43.500,24.900 44.167,25.000 44.167 C 25.092 44.167,25.167 44.542,25.167 45.000 C 25.167 45.630,25.228 45.833,25.417 45.833 C 25.580 45.833,25.667 45.997,25.667 46.302 C 25.667 46.560,25.817 46.931,26.000 47.128 C 26.183 47.325,26.335 47.545,26.336 47.618 C 26.340 47.825,27.275 48.833,27.462 48.833 C 27.555 48.833,27.674 48.946,27.727 49.083 C 27.780 49.221,27.903 49.333,28.002 49.333 C 28.100 49.333,28.342 49.483,28.538 49.667 C 28.735 49.850,29.024 50.000,29.180 50.000 C 29.337 50.000,29.508 50.112,29.560 50.250 C 29.613 50.387,29.809 50.500,29.995 50.500 C 30.181 50.500,30.333 50.575,30.333 50.667 C 30.333 50.758,30.591 50.833,30.907 50.833 C 31.222 50.833,31.527 50.908,31.583 51.000 C 31.640 51.092,32.086 51.167,32.575 51.167 C 33.212 51.167,33.492 51.238,33.560 51.417 C 33.641 51.627,34.179 51.667,36.977 51.667 C 39.775 51.667,40.313 51.627,40.394 51.417 C 40.459 51.245,40.727 51.167,41.245 51.167 C 41.660 51.167,42.000 51.092,42.000 51.000 C 42.000 50.908,42.262 50.833,42.583 50.833 C 42.904 50.833,43.167 50.758,43.167 50.667 C 43.167 50.575,43.354 50.500,43.583 50.500 C 43.843 50.500,44.000 50.406,44.000 50.250 C 44.000 50.111,44.148 50.000,44.336 50.000 C 44.856 50.000,45.833 49.376,45.833 49.043 C 45.833 48.962,46.096 48.793,46.417 48.667 C 46.737 48.541,47.000 48.374,47.000 48.295 C 47.000 48.143,47.188 47.895,47.792 47.250 C 47.998 47.029,48.167 46.770,48.167 46.674 C 48.167 46.578,48.279 46.500,48.417 46.500 C 48.554 46.500,48.667 46.354,48.667 46.177 C 48.667 45.999,48.742 45.807,48.833 45.750 C 48.925 45.693,49.000 45.501,49.000 45.323 C 49.000 45.146,49.075 45.000,49.167 45.000 C 49.258 45.000,49.333 44.813,49.333 44.583 C 49.333 44.324,49.428 44.167,49.583 44.167 C 49.758 44.167,49.833 43.991,49.833 43.583 C 49.833 43.262,49.908 43.000,50.000 43.000 C 50.092 43.000,50.167 42.737,50.167 42.417 C 50.167 42.029,50.245 41.833,50.399 41.833 C 50.623 41.833,50.669 41.659,50.934 39.792 C 50.989 39.402,51.101 39.012,51.184 38.925 C 51.266 38.838,51.333 38.439,51.333 38.038 C 51.333 37.613,51.437 37.205,51.583 37.060 C 51.729 36.914,51.833 36.506,51.833 36.081 C 51.833 35.681,51.908 35.307,52.000 35.250 C 52.092 35.193,52.167 34.739,52.167 34.240 C 52.167 33.741,52.242 33.333,52.333 33.333 C 52.425 33.333,52.500 32.990,52.500 32.571 C 52.500 32.116,52.601 31.709,52.750 31.560 C 52.896 31.414,53.000 31.006,53.000 30.581 C 53.000 30.181,53.075 29.807,53.167 29.750 C 53.258 29.693,53.333 29.239,53.333 28.740 C 53.333 28.241,53.408 27.833,53.500 27.833 C 53.592 27.833,53.667 27.395,53.667 26.851 C 53.667 26.132,53.734 25.843,53.917 25.773 C 54.087 25.708,54.167 25.441,54.167 24.932 C 54.167 24.522,54.242 24.140,54.333 24.083 C 54.425 24.027,54.500 23.610,54.500 23.157 C 54.500 22.704,54.575 22.333,54.667 22.333 C 54.758 22.333,54.833 22.108,54.833 21.833 L 54.833 21.333 51.167 21.333 L 47.500 21.333 47.500 22.083 C 47.500 22.496,47.425 22.833,47.333 22.833 C 47.242 22.833,47.167 23.248,47.167 23.755 C 47.167 24.421,47.097 24.704,46.917 24.773 C 46.742 24.840,46.667 25.113,46.667 25.684 C 46.667 26.133,46.592 26.500,46.500 26.500 C 46.408 26.500,46.333 26.912,46.333 27.417 C 46.333 27.921,46.258 28.333,46.167 28.333 C 46.075 28.333,46.000 28.738,46.000 29.232 C 46.000 29.877,45.929 30.158,45.750 30.227 C 45.569 30.296,45.500 30.579,45.500 31.245 C 45.500 31.752,45.425 32.167,45.333 32.167 C 45.242 32.167,45.167 32.537,45.167 32.990 C 45.167 33.443,45.092 33.860,45.000 33.917 C 44.908 33.973,44.833 34.382,44.833 34.825 C 44.833 35.388,44.758 35.660,44.583 35.727 C 44.403 35.796,44.333 36.079,44.333 36.745 C 44.333 37.252,44.258 37.667,44.167 37.667 C 44.075 37.667,44.000 37.972,44.000 38.345 C 44.000 38.726,43.890 39.133,43.750 39.274 C 43.612 39.411,43.500 39.777,43.500 40.085 C 43.500 40.394,43.425 40.693,43.333 40.750 C 43.242 40.807,43.167 41.069,43.167 41.333 C 43.167 41.598,43.092 41.860,43.000 41.917 C 42.908 41.973,42.833 42.165,42.833 42.343 C 42.833 42.521,42.763 42.667,42.678 42.667 C 42.592 42.667,42.471 42.828,42.409 43.026 C 42.263 43.484,41.063 44.667,40.743 44.667 C 40.609 44.667,40.500 44.742,40.500 44.833 C 40.500 44.925,40.313 45.000,40.083 45.000 C 39.854 45.000,39.667 45.075,39.667 45.167 C 39.667 45.270,38.750 45.333,37.250 45.333 C 35.750 45.333,34.833 45.270,34.833 45.167 C 34.833 45.075,34.698 45.000,34.533 45.000 C 34.161 45.000,33.336 44.628,33.335 44.459 C 33.334 44.390,33.071 44.056,32.750 43.716 L 32.167 43.097 32.167 41.486 C 32.167 40.257,32.226 39.825,32.417 39.667 C 32.568 39.541,32.667 39.176,32.667 38.739 C 32.667 38.344,32.742 37.973,32.833 37.917 C 32.925 37.860,33.000 37.406,33.000 36.907 C 33.000 36.408,33.075 36.000,33.167 36.000 C 33.258 36.000,33.333 35.596,33.333 35.101 C 33.333 34.456,33.404 34.175,33.583 34.106 C 33.759 34.039,33.833 33.765,33.833 33.182 C 33.833 32.726,33.908 32.307,34.000 32.250 C 34.092 32.193,34.167 31.776,34.167 31.323 C 34.167 30.871,34.242 30.500,34.333 30.500 C 34.425 30.500,34.500 30.096,34.500 29.601 C 34.500 28.956,34.571 28.675,34.750 28.606 C 34.931 28.537,35.000 28.254,35.000 27.589 C 35.000 27.082,35.075 26.667,35.167 26.667 C 35.258 26.667,35.333 26.296,35.333 25.843 C 35.333 25.390,35.408 24.973,35.500 24.917 C 35.592 24.860,35.667 24.451,35.667 24.008 C 35.667 23.446,35.742 23.173,35.917 23.106 C 36.093 23.039,36.167 22.764,36.167 22.172 L 36.167 21.333 29.561 21.333 L 22.955 21.333 22.561 21.792 C 22.344 22.044,22.167 22.381,22.167 22.542 C 22.167 22.702,22.086 22.833,21.988 22.833 C 21.757 22.833,21.333 23.257,21.333 23.488 C 21.333 23.586,21.258 23.667,21.167 23.667 C 21.075 23.667,21.000 23.817,21.000 24.000 C 21.000 24.185,20.889 24.333,20.750 24.333 C 20.612 24.333,20.500 24.446,20.500 24.583 C 20.500 24.721,20.425 24.833,20.333 24.833 C 20.242 24.833,20.167 24.946,20.167 25.083 C 20.167 25.221,20.092 25.333,20.000 25.333 C 19.908 25.333,19.833 25.483,19.833 25.667 C 19.833 25.850,19.753 26.000,19.655 26.000 C 19.361 26.000,19.000 26.452,19.000 26.821 C 19.000 27.011,18.915 27.167,18.811 27.167 C 18.536 27.167,17.834 28.034,17.834 28.375 C 17.833 28.535,17.740 28.668,17.625 28.669 C 17.440 28.671,16.667 29.682,16.667 29.922 C 16.667 29.974,16.492 30.181,16.278 30.383 C 16.065 30.585,15.784 30.994,15.654 31.292 C 15.525 31.590,15.351 31.833,15.269 31.833 C 15.047 31.833,14.678 32.374,14.672 32.708 C 14.664 33.162,14.333 33.052,14.333 32.595 C 14.333 32.373,14.221 32.078,14.083 31.940 C 13.946 31.803,13.833 31.540,13.833 31.355 C 13.833 31.171,13.758 30.973,13.667 30.917 C 13.575 30.860,13.500 30.593,13.500 30.323 C 13.500 30.054,13.425 29.833,13.333 29.833 C 13.242 29.833,13.167 29.606,13.167 29.328 C 13.167 29.033,13.063 28.783,12.917 28.727 C 12.762 28.668,12.667 28.414,12.667 28.066 C 12.667 27.754,12.592 27.500,12.500 27.500 C 12.408 27.500,12.333 27.273,12.333 26.995 C 12.333 26.699,12.229 26.450,12.083 26.394 C 11.929 26.334,11.833 26.081,11.833 25.732 C 11.833 25.421,11.758 25.167,11.667 25.167 C 11.575 25.167,11.500 24.984,11.500 24.760 C 11.500 24.536,11.425 24.307,11.333 24.250 C 11.242 24.193,11.167 23.926,11.167 23.657 C 11.167 23.332,11.082 23.167,10.917 23.167 C 10.742 23.167,10.667 22.991,10.667 22.583 C 10.667 22.262,10.592 22.000,10.500 22.000 C 10.408 22.000,10.333 21.850,10.333 21.667 C 10.333 21.343,10.222 21.333,6.667 21.333 L 3.000 21.333 3.000 21.833 M56.000 21.667 C 56.000 21.850,55.925 22.000,55.833 22.000 C 55.742 22.000,55.667 22.371,55.667 22.823 C 55.667 23.276,55.592 23.693,55.500 23.750 C 55.408 23.807,55.331 24.205,55.328 24.635 C 55.325 25.065,55.213 25.562,55.078 25.740 C 54.943 25.918,54.833 26.387,54.833 26.782 C 54.833 27.177,54.758 27.500,54.667 27.500 C 54.574 27.500,54.500 27.944,54.500 28.500 C 54.500 29.056,54.426 29.500,54.333 29.500 C 54.242 29.500,54.167 29.843,54.167 30.262 C 54.167 30.717,54.066 31.125,53.917 31.274 C 53.771 31.420,53.667 31.827,53.667 32.252 C 53.667 32.653,53.592 33.027,53.500 33.083 C 53.408 33.140,53.333 33.552,53.333 34.000 C 53.333 34.448,53.258 34.860,53.167 34.917 C 53.075 34.973,53.000 35.420,53.000 35.909 C 53.000 36.545,52.929 36.825,52.750 36.894 C 52.574 36.961,52.500 37.235,52.500 37.818 C 52.500 38.274,52.425 38.693,52.333 38.750 C 52.242 38.807,52.167 39.182,52.167 39.583 C 52.167 39.985,52.092 40.360,52.000 40.417 C 51.908 40.473,51.833 40.920,51.833 41.409 C 51.833 42.045,51.762 42.325,51.583 42.394 C 51.407 42.461,51.333 42.735,51.333 43.318 C 51.333 43.774,51.258 44.193,51.167 44.250 C 51.075 44.307,51.000 44.719,51.000 45.167 C 51.000 45.614,50.925 46.027,50.833 46.083 C 50.742 46.140,50.667 46.525,50.667 46.938 C 50.667 47.385,50.565 47.792,50.417 47.940 C 50.271 48.086,50.167 48.494,50.167 48.919 C 50.167 49.319,50.092 49.693,50.000 49.750 C 49.908 49.807,49.833 50.074,49.833 50.343 L 49.833 50.833 53.333 50.833 L 56.833 50.833 56.833 49.833 C 56.833 49.278,56.907 48.833,57.000 48.833 C 57.092 48.833,57.167 48.429,57.167 47.934 C 57.167 47.289,57.237 47.009,57.417 46.940 C 57.597 46.870,57.667 46.588,57.667 45.922 C 57.667 45.415,57.742 45.000,57.833 45.000 C 57.926 45.000,58.000 44.556,58.000 44.000 C 58.000 43.444,58.074 43.000,58.167 43.000 C 58.258 43.000,58.333 42.596,58.333 42.101 C 58.333 41.456,58.404 41.175,58.583 41.106 C 58.759 41.039,58.833 40.765,58.833 40.182 C 58.833 39.726,58.908 39.307,59.000 39.250 C 59.092 39.193,59.167 38.781,59.167 38.333 C 59.167 37.886,59.242 37.473,59.333 37.417 C 59.425 37.360,59.500 36.952,59.500 36.511 C 59.500 36.000,59.591 35.632,59.750 35.500 C 59.909 35.368,60.000 35.000,60.000 34.489 C 60.000 34.048,60.075 33.640,60.167 33.583 C 60.258 33.527,60.333 33.072,60.333 32.573 C 60.333 31.879,60.392 31.667,60.583 31.667 C 60.739 31.667,60.833 31.824,60.833 32.083 C 60.833 32.313,60.908 32.500,61.000 32.500 C 61.092 32.500,61.167 32.721,61.167 32.990 C 61.167 33.260,61.242 33.527,61.333 33.583 C 61.425 33.640,61.500 33.869,61.500 34.093 C 61.500 34.344,61.596 34.500,61.750 34.500 C 61.906 34.500,62.000 34.658,62.000 34.919 C 62.000 35.149,62.075 35.487,62.167 35.669 C 62.258 35.851,62.408 36.149,62.500 36.331 C 62.592 36.513,62.667 36.843,62.667 37.063 C 62.667 37.284,62.779 37.508,62.917 37.560 C 63.054 37.613,63.167 37.809,63.167 37.995 C 63.167 38.181,63.242 38.333,63.333 38.333 C 63.425 38.333,63.500 38.596,63.500 38.917 C 63.500 39.237,63.575 39.500,63.667 39.500 C 63.758 39.500,63.833 39.678,63.833 39.896 C 63.833 40.114,63.946 40.386,64.083 40.500 C 64.221 40.614,64.333 40.886,64.333 41.104 C 64.333 41.322,64.408 41.500,64.500 41.500 C 64.592 41.500,64.667 41.721,64.667 41.990 C 64.667 42.260,64.742 42.527,64.833 42.583 C 64.925 42.640,65.000 42.834,65.000 43.015 C 65.000 43.196,65.112 43.387,65.250 43.440 C 65.391 43.494,65.500 43.742,65.500 44.008 C 65.500 44.268,65.575 44.527,65.667 44.583 C 65.758 44.640,65.833 44.832,65.833 45.010 C 65.833 45.188,65.908 45.333,66.000 45.333 C 66.092 45.333,66.167 45.515,66.167 45.738 C 66.167 45.961,66.279 46.255,66.417 46.393 C 66.554 46.530,66.667 46.798,66.667 46.988 C 66.667 47.178,66.742 47.333,66.833 47.333 C 66.925 47.333,67.000 47.596,67.000 47.917 C 67.000 48.237,67.075 48.500,67.167 48.500 C 67.258 48.500,67.333 48.645,67.333 48.821 C 67.333 48.998,67.446 49.255,67.583 49.393 C 67.721 49.530,67.833 49.804,67.833 50.000 C 67.833 50.785,68.067 50.833,71.887 50.833 C 75.892 50.833,75.667 50.909,75.667 49.570 C 75.667 49.165,75.742 48.833,75.833 48.833 C 75.925 48.833,76.000 48.463,76.000 48.010 C 76.000 47.557,76.075 47.140,76.167 47.083 C 76.258 47.027,76.333 46.642,76.333 46.228 C 76.333 45.782,76.435 45.375,76.583 45.226 C 76.729 45.080,76.833 44.673,76.833 44.248 C 76.833 43.847,76.908 43.473,77.000 43.417 C 77.092 43.360,77.167 42.906,77.167 42.407 C 77.167 41.908,77.242 41.500,77.333 41.500 C 77.425 41.500,77.500 41.134,77.500 40.687 C 77.500 40.168,77.590 39.799,77.750 39.667 C 77.902 39.541,78.000 39.176,78.000 38.739 C 78.000 38.344,78.075 37.973,78.167 37.917 C 78.258 37.860,78.333 37.406,78.333 36.907 C 78.333 36.408,78.408 36.000,78.500 36.000 C 78.592 36.000,78.667 35.596,78.667 35.101 C 78.667 34.456,78.737 34.175,78.917 34.106 C 79.093 34.039,79.167 33.765,79.167 33.182 C 79.167 32.726,79.242 32.307,79.333 32.250 C 79.425 32.193,79.500 31.776,79.500 31.323 C 79.500 30.871,79.575 30.500,79.667 30.500 C 79.758 30.500,79.833 30.096,79.833 29.601 C 79.833 28.956,79.904 28.675,80.083 28.606 C 80.264 28.537,80.333 28.254,80.333 27.589 C 80.333 27.082,80.408 26.667,80.500 26.667 C 80.592 26.667,80.667 26.292,80.667 25.833 C 80.667 25.375,80.742 25.000,80.833 25.000 C 80.925 25.000,81.000 24.596,81.000 24.101 C 81.000 23.456,81.071 23.175,81.250 23.106 C 81.426 23.039,81.500 22.764,81.500 22.172 L 81.500 21.333 78.167 21.333 L 74.833 21.333 74.833 21.917 C 74.833 22.238,74.758 22.500,74.667 22.500 C 74.575 22.500,74.500 22.903,74.500 23.396 C 74.500 23.990,74.416 24.363,74.250 24.500 C 74.091 24.632,74.000 25.000,74.000 25.511 C 74.000 25.952,73.925 26.360,73.833 26.417 C 73.742 26.473,73.667 26.928,73.667 27.427 C 73.667 27.925,73.592 28.333,73.500 28.333 C 73.408 28.333,73.333 28.737,73.333 29.230 C 73.333 29.823,73.249 30.196,73.083 30.333 C 72.924 30.465,72.833 30.833,72.833 31.344 C 72.833 31.786,72.758 32.193,72.667 32.250 C 72.575 32.307,72.500 32.761,72.500 33.260 C 72.500 33.759,72.425 34.167,72.333 34.167 C 72.241 34.167,72.167 34.605,72.167 35.149 C 72.167 35.868,72.100 36.157,71.917 36.227 C 71.741 36.294,71.667 36.569,71.667 37.152 C 71.667 37.607,71.592 38.027,71.500 38.083 C 71.408 38.140,71.333 38.594,71.333 39.093 C 71.333 39.592,71.258 40.000,71.167 40.000 C 71.075 40.000,70.990 40.281,70.977 40.625 C 70.961 41.080,70.934 41.137,70.880 40.833 C 70.839 40.604,70.736 40.345,70.653 40.258 C 70.569 40.171,70.500 39.890,70.500 39.633 C 70.500 39.377,70.425 39.167,70.333 39.167 C 70.242 39.167,70.167 38.985,70.167 38.762 C 70.167 38.539,70.054 38.245,69.917 38.107 C 69.779 37.970,69.667 37.702,69.667 37.512 C 69.667 37.322,69.592 37.167,69.500 37.167 C 69.408 37.167,69.333 36.946,69.333 36.677 C 69.333 36.407,69.258 36.140,69.167 36.083 C 69.075 36.027,69.000 35.840,69.000 35.669 C 69.000 35.497,68.887 35.245,68.750 35.107 C 68.612 34.970,68.500 34.702,68.500 34.512 C 68.500 34.322,68.425 34.167,68.333 34.167 C 68.242 34.167,68.167 33.904,68.167 33.583 C 68.167 33.262,68.092 33.000,68.000 33.000 C 67.908 33.000,67.833 32.813,67.833 32.583 C 67.833 32.324,67.739 32.167,67.583 32.167 C 67.409 32.167,67.333 31.991,67.333 31.583 C 67.333 31.262,67.258 31.000,67.167 31.000 C 67.075 31.000,67.000 30.779,67.000 30.510 C 67.000 30.240,66.925 29.973,66.833 29.917 C 66.742 29.860,66.667 29.666,66.667 29.485 C 66.667 29.304,66.554 29.113,66.417 29.060 C 66.279 29.007,66.167 28.760,66.167 28.510 C 66.167 28.260,66.115 28.004,66.052 27.941 C 65.886 27.775,65.505 26.633,65.503 26.292 C 65.501 26.131,65.387 26.000,65.250 26.000 C 65.075 26.000,65.000 25.824,65.000 25.417 C 65.000 25.096,64.925 24.833,64.833 24.833 C 64.742 24.833,64.667 24.646,64.667 24.417 C 64.667 24.188,64.592 24.000,64.500 24.000 C 64.408 24.000,64.333 23.773,64.333 23.495 C 64.333 23.199,64.229 22.950,64.083 22.894 C 63.946 22.841,63.831 22.599,63.828 22.357 C 63.816 21.353,63.737 21.333,59.690 21.333 C 56.111 21.333,56.000 21.343,56.000 21.667 M82.667 21.917 C 82.667 22.238,82.592 22.500,82.500 22.500 C 82.408 22.500,82.333 22.904,82.333 23.399 C 82.333 24.044,82.263 24.325,82.083 24.394 C 81.903 24.463,81.833 24.746,81.833 25.411 C 81.833 25.918,81.758 26.333,81.667 26.333 C 81.574 26.333,81.500 26.772,81.500 27.316 C 81.500 28.035,81.433 28.323,81.250 28.394 C 81.079 28.459,81.000 28.726,81.000 29.235 C 81.000 29.645,80.925 30.027,80.833 30.083 C 80.742 30.140,80.667 30.557,80.667 31.010 C 80.667 31.463,80.592 31.833,80.500 31.833 C 80.408 31.833,80.333 32.237,80.333 32.730 C 80.333 33.323,80.249 33.696,80.083 33.833 C 79.924 33.966,79.833 34.334,79.833 34.854 C 79.833 35.301,79.758 35.667,79.667 35.667 C 79.575 35.667,79.500 36.037,79.500 36.490 C 79.500 36.943,79.425 37.360,79.333 37.417 C 79.242 37.473,79.167 37.884,79.167 38.329 C 79.167 38.792,79.084 39.166,78.975 39.203 C 78.869 39.238,78.747 39.694,78.704 40.217 C 78.661 40.739,78.560 41.167,78.479 41.167 C 78.399 41.167,78.333 41.575,78.333 42.073 C 78.333 42.572,78.258 43.027,78.167 43.083 C 78.075 43.140,78.000 43.525,78.000 43.938 C 78.000 44.385,77.898 44.792,77.750 44.940 C 77.603 45.087,77.500 45.495,77.500 45.929 C 77.500 46.335,77.425 46.667,77.333 46.667 C 77.242 46.667,77.167 47.079,77.167 47.583 C 77.167 48.087,77.092 48.500,77.000 48.500 C 76.905 48.500,76.833 49.000,76.833 49.667 L 76.833 50.833 80.333 50.833 L 83.833 50.833 83.833 50.427 C 83.833 50.203,83.908 49.973,84.000 49.917 C 84.092 49.860,84.167 49.448,84.167 49.000 C 84.167 48.552,84.242 48.140,84.333 48.083 C 84.425 48.027,84.500 47.580,84.500 47.091 C 84.500 46.455,84.571 46.175,84.750 46.106 C 84.931 46.037,85.000 45.754,85.000 45.089 C 85.000 44.582,85.075 44.167,85.167 44.167 C 85.258 44.167,85.333 43.834,85.333 43.427 C 85.333 43.019,85.408 42.640,85.500 42.583 C 85.592 42.527,85.667 42.072,85.667 41.573 C 85.667 40.879,85.725 40.667,85.917 40.667 C 86.106 40.667,86.168 40.456,86.172 39.792 C 86.181 38.253,85.855 38.333,92.060 38.333 C 97.334 38.333,97.500 38.343,97.500 38.657 C 97.500 38.835,97.425 39.027,97.333 39.083 C 97.242 39.140,97.167 39.549,97.167 39.992 C 97.167 40.554,97.091 40.827,96.917 40.894 C 96.740 40.961,96.667 41.236,96.667 41.828 C 96.667 42.289,96.592 42.667,96.500 42.667 C 96.407 42.667,96.333 43.111,96.333 43.667 C 96.333 44.222,96.259 44.667,96.167 44.667 C 96.075 44.667,96.000 45.010,96.000 45.429 C 96.000 45.884,95.899 46.291,95.750 46.440 C 95.604 46.586,95.500 46.994,95.500 47.419 C 95.500 47.819,95.425 48.193,95.333 48.250 C 95.242 48.307,95.167 48.761,95.167 49.260 C 95.167 49.759,95.092 50.167,95.000 50.167 C 94.908 50.167,94.833 50.317,94.833 50.500 C 94.833 50.828,94.944 50.833,101.386 50.833 L 107.938 50.833 108.164 50.257 C 108.288 49.940,108.490 49.642,108.612 49.596 C 108.734 49.549,108.833 49.358,108.833 49.172 C 108.833 48.986,108.908 48.833,109.000 48.833 C 109.092 48.833,109.167 48.683,109.167 48.500 C 109.167 48.317,109.242 48.167,109.333 48.167 C 109.425 48.167,109.500 47.979,109.500 47.750 C 109.500 47.491,109.594 47.333,109.750 47.333 C 109.888 47.333,110.000 47.221,110.000 47.083 C 110.000 46.946,110.075 46.833,110.167 46.833 C 110.258 46.833,110.333 46.683,110.333 46.500 C 110.333 46.317,110.408 46.167,110.500 46.167 C 110.592 46.167,110.667 45.979,110.667 45.750 C 110.667 45.491,110.761 45.333,110.917 45.333 C 111.056 45.333,111.167 45.185,111.167 45.000 C 111.167 44.674,111.278 44.667,116.417 44.667 L 121.667 44.667 121.667 45.172 C 121.667 45.467,121.771 45.717,121.917 45.773 C 122.110 45.847,122.167 46.169,122.167 47.184 C 122.167 47.950,122.236 48.500,122.333 48.500 C 122.429 48.500,122.500 49.000,122.500 49.667 L 122.500 50.833 126.167 50.833 L 129.833 50.833 129.833 50.333 C 129.833 50.058,129.758 49.833,129.667 49.833 C 129.571 49.833,129.500 49.333,129.500 48.667 C 129.500 48.000,129.429 47.500,129.333 47.500 C 129.241 47.500,129.167 47.066,129.167 46.532 C 129.167 45.939,129.072 45.438,128.922 45.240 C 128.770 45.039,128.675 44.527,128.672 43.885 C 128.669 43.317,128.592 42.807,128.500 42.750 C 128.408 42.693,128.333 42.206,128.333 41.667 C 128.333 41.127,128.258 40.640,128.167 40.583 C 128.075 40.527,128.000 40.049,128.000 39.522 C 128.000 38.937,127.905 38.438,127.755 38.240 C 127.603 38.039,127.509 37.527,127.505 36.885 C 127.502 36.317,127.425 35.807,127.333 35.750 C 127.242 35.693,127.167 35.179,127.167 34.607 C 127.167 34.035,127.100 33.495,127.018 33.408 C 126.936 33.321,126.837 32.767,126.797 32.176 C 126.755 31.563,126.640 31.075,126.529 31.037 C 126.407 30.997,126.333 30.575,126.333 29.913 C 126.333 29.330,126.258 28.807,126.167 28.750 C 126.075 28.693,126.000 28.168,126.000 27.583 C 126.000 26.998,125.925 26.473,125.833 26.417 C 125.742 26.360,125.667 25.920,125.667 25.439 C 125.667 24.927,125.565 24.429,125.422 24.240 C 125.274 24.044,125.173 23.523,125.167 22.917 C 125.149 21.283,125.280 21.333,121.095 21.333 C 117.241 21.333,117.000 21.382,117.000 22.155 C 117.000 22.345,116.925 22.500,116.833 22.500 C 116.742 22.500,116.667 22.609,116.667 22.741 C 116.667 22.874,116.479 23.185,116.250 23.432 C 116.021 23.680,115.833 23.984,115.833 24.108 C 115.833 24.232,115.758 24.333,115.667 24.333 C 115.575 24.333,115.500 24.521,115.500 24.750 C 115.500 24.983,115.403 25.167,115.281 25.167 C 115.161 25.167,114.959 25.429,114.833 25.750 C 114.707 26.071,114.543 26.333,114.469 26.333 C 114.394 26.333,114.333 26.521,114.333 26.750 C 114.333 26.983,114.237 27.167,114.114 27.167 C 113.994 27.167,113.793 27.429,113.667 27.750 C 113.541 28.071,113.377 28.333,113.302 28.333 C 113.228 28.333,113.167 28.475,113.167 28.649 C 113.167 28.822,113.054 29.008,112.917 29.060 C 112.779 29.113,112.667 29.274,112.667 29.418 C 112.667 29.563,112.517 29.842,112.333 30.038 C 112.150 30.235,112.000 30.532,112.000 30.698 C 112.000 30.864,111.888 31.000,111.750 31.000 C 111.609 31.000,111.500 31.149,111.500 31.340 C 111.500 31.527,111.350 31.842,111.167 32.038 C 110.983 32.235,110.833 32.532,110.833 32.698 C 110.833 32.864,110.721 33.000,110.583 33.000 C 110.444 33.000,110.333 33.148,110.333 33.333 C 110.333 33.517,110.276 33.667,110.206 33.667 C 110.136 33.667,109.949 33.967,109.790 34.333 C 109.631 34.700,109.426 35.000,109.334 35.000 C 109.242 35.000,109.167 35.150,109.167 35.333 C 109.167 35.517,109.092 35.667,109.000 35.667 C 108.908 35.667,108.833 35.809,108.833 35.983 C 108.833 36.156,108.647 36.475,108.420 36.691 C 108.192 36.907,108.004 37.215,108.003 37.375 C 108.001 37.535,107.925 37.667,107.833 37.667 C 107.742 37.667,107.667 37.817,107.667 38.000 C 107.667 38.183,107.592 38.333,107.500 38.333 C 107.408 38.333,107.333 38.446,107.333 38.583 C 107.333 38.721,107.264 38.833,107.179 38.833 C 107.028 38.833,106.500 39.754,106.500 40.017 C 106.500 40.090,106.313 40.352,106.083 40.599 C 105.854 40.846,105.667 41.150,105.667 41.274 C 105.667 41.398,105.592 41.500,105.500 41.500 C 105.408 41.500,105.333 41.688,105.333 41.917 C 105.333 42.150,105.237 42.333,105.114 42.333 C 104.994 42.333,104.793 42.596,104.667 42.917 C 104.541 43.237,104.377 43.500,104.302 43.500 C 104.228 43.500,104.167 43.642,104.167 43.816 C 104.167 43.989,104.054 44.174,103.917 44.227 C 103.779 44.280,103.667 44.475,103.667 44.661 C 103.667 44.848,103.592 45.000,103.500 45.000 C 103.408 45.000,103.333 44.813,103.333 44.583 C 103.333 44.354,103.408 44.167,103.500 44.167 C 103.592 44.167,103.667 43.762,103.667 43.268 C 103.667 42.623,103.737 42.342,103.917 42.273 C 104.087 42.208,104.167 41.941,104.167 41.432 C 104.167 41.022,104.242 40.640,104.333 40.583 C 104.425 40.527,104.500 40.072,104.500 39.573 C 104.500 39.075,104.575 38.667,104.667 38.667 C 104.758 38.667,104.833 38.262,104.833 37.768 C 104.833 37.152,104.907 36.841,105.066 36.780 C 105.200 36.728,105.340 36.348,105.395 35.887 C 105.650 33.753,105.710 33.405,105.849 33.258 C 105.932 33.171,106.000 32.711,106.000 32.234 C 106.000 31.619,106.072 31.341,106.250 31.273 C 106.431 31.204,106.500 30.921,106.500 30.255 C 106.500 29.748,106.575 29.333,106.667 29.333 C 106.758 29.333,106.833 29.000,106.833 28.593 C 106.833 28.186,106.908 27.807,107.000 27.750 C 107.092 27.693,107.167 27.247,107.167 26.758 C 107.167 26.122,107.238 25.842,107.417 25.773 C 107.593 25.706,107.667 25.431,107.667 24.848 C 107.667 24.393,107.742 23.973,107.833 23.917 C 107.925 23.860,108.000 23.406,108.000 22.907 C 108.000 22.408,108.075 22.000,108.167 22.000 C 108.258 22.000,108.333 21.850,108.333 21.667 C 108.333 21.343,108.222 21.333,104.667 21.333 L 101.000 21.333 101.000 21.917 C 101.000 22.238,100.925 22.500,100.833 22.500 C 100.742 22.500,100.667 22.904,100.667 23.399 C 100.667 24.044,100.596 24.325,100.417 24.394 C 100.241 24.461,100.167 24.735,100.167 25.318 C 100.167 25.774,100.092 26.193,100.000 26.250 C 99.908 26.307,99.833 26.682,99.833 27.083 C 99.833 27.485,99.758 27.860,99.667 27.917 C 99.575 27.973,99.500 28.420,99.500 28.909 C 99.500 29.545,99.429 29.825,99.250 29.894 C 99.073 29.962,99.000 30.238,99.000 30.840 C 99.000 32.225,99.260 32.167,93.095 32.167 L 87.667 32.167 87.667 31.768 C 87.667 31.548,87.772 31.329,87.900 31.280 C 88.033 31.228,88.175 30.846,88.230 30.387 C 88.284 29.945,88.374 29.190,88.430 28.708 C 88.486 28.227,88.600 27.833,88.683 27.833 C 88.766 27.833,88.833 27.391,88.833 26.851 C 88.833 26.132,88.900 25.843,89.083 25.773 C 89.260 25.705,89.333 25.430,89.333 24.839 C 89.333 24.377,89.408 24.000,89.500 24.000 C 89.592 24.000,89.667 23.625,89.667 23.167 C 89.667 22.708,89.742 22.333,89.833 22.333 C 89.925 22.333,90.000 22.108,90.000 21.833 L 90.000 21.333 86.333 21.333 L 82.667 21.333 82.667 21.917 M141.512 21.615 C 141.381 21.763,141.240 22.285,141.199 22.775 C 141.159 23.265,141.060 23.667,140.979 23.667 C 140.899 23.667,140.833 24.079,140.833 24.583 C 140.833 25.087,140.758 25.500,140.667 25.500 C 140.575 25.500,140.500 25.903,140.500 26.396 C 140.500 26.990,140.416 27.363,140.250 27.500 C 140.098 27.626,140.000 27.991,140.000 28.427 C 140.000 28.823,139.925 29.193,139.833 29.250 C 139.742 29.307,139.667 29.724,139.667 30.177 C 139.667 30.629,139.592 31.000,139.500 31.000 C 139.407 31.000,139.333 31.444,139.333 32.000 C 139.333 32.778,139.278 33.000,139.083 33.000 C 138.892 33.000,138.833 33.212,138.833 33.907 C 138.833 34.406,138.758 34.860,138.667 34.917 C 138.575 34.973,138.500 35.348,138.500 35.750 C 138.500 36.152,138.425 36.527,138.333 36.583 C 138.242 36.640,138.167 37.086,138.167 37.575 C 138.167 38.212,138.096 38.492,137.917 38.560 C 137.740 38.628,137.667 38.903,137.667 39.495 C 137.667 39.956,137.592 40.333,137.500 40.333 C 137.407 40.333,137.333 40.778,137.333 41.333 C 137.333 41.889,137.259 42.333,137.167 42.333 C 137.075 42.333,137.000 42.676,137.000 43.095 C 137.000 43.550,136.899 43.958,136.750 44.107 C 136.604 44.253,136.500 44.660,136.500 45.085 C 136.500 45.486,136.425 45.860,136.333 45.917 C 136.242 45.973,136.167 46.428,136.167 46.927 C 136.167 47.425,136.092 47.833,136.000 47.833 C 135.908 47.833,135.833 48.238,135.833 48.732 C 135.833 49.377,135.763 49.658,135.583 49.727 C 135.437 49.783,135.333 50.033,135.333 50.331 L 135.333 50.840 139.042 50.795 L 142.750 50.750 142.802 50.000 C 142.831 49.587,142.925 49.179,143.011 49.092 C 143.096 49.005,143.167 48.573,143.167 48.133 C 143.167 47.693,143.242 47.333,143.333 47.333 C 143.426 47.333,143.500 46.889,143.500 46.333 C 143.500 45.556,143.556 45.333,143.750 45.333 C 143.942 45.333,144.000 45.120,144.000 44.417 C 144.000 43.913,144.075 43.500,144.167 43.500 C 144.258 43.500,144.333 43.129,144.333 42.677 C 144.333 42.224,144.408 41.807,144.500 41.750 C 144.592 41.693,144.667 41.274,144.667 40.818 C 144.667 40.235,144.741 39.961,144.917 39.894 C 145.096 39.825,145.167 39.544,145.167 38.899 C 145.167 38.404,145.242 38.000,145.333 38.000 C 145.425 38.000,145.500 37.629,145.500 37.177 C 145.500 36.724,145.575 36.307,145.667 36.250 C 145.758 36.193,145.833 35.809,145.833 35.395 C 145.833 34.949,145.935 34.541,146.083 34.393 C 146.238 34.238,146.333 33.829,146.333 33.321 C 146.333 32.870,146.408 32.500,146.500 32.500 C 146.592 32.500,146.667 32.092,146.667 31.593 C 146.667 31.094,146.742 30.640,146.833 30.583 C 146.925 30.527,147.000 30.156,147.000 29.761 C 147.000 29.324,147.098 28.959,147.250 28.833 C 147.410 28.701,147.500 28.332,147.500 27.813 C 147.500 27.366,147.575 27.000,147.667 27.000 C 147.758 27.000,147.833 26.587,147.833 26.083 C 147.833 25.579,147.908 25.167,148.000 25.167 C 148.093 25.167,148.167 24.722,148.167 24.167 C 148.167 23.389,148.222 23.167,148.417 23.167 C 148.609 23.167,148.667 22.954,148.667 22.250 L 148.667 21.333 145.208 21.340 C 142.242 21.345,141.716 21.384,141.512 21.615 M149.833 22.073 C 149.833 22.481,149.758 22.860,149.667 22.917 C 149.575 22.973,149.500 23.420,149.500 23.909 C 149.500 24.545,149.429 24.825,149.250 24.894 C 149.074 24.961,149.000 25.235,149.000 25.818 C 149.000 26.274,148.925 26.693,148.833 26.750 C 148.742 26.807,148.667 27.219,148.667 27.667 C 148.667 28.114,148.592 28.527,148.500 28.583 C 148.408 28.640,148.333 29.025,148.333 29.438 C 148.333 29.885,148.232 30.292,148.083 30.440 C 147.936 30.587,147.833 30.995,147.833 31.429 C 147.833 31.835,147.758 32.167,147.667 32.167 C 147.574 32.167,147.500 32.611,147.500 33.167 C 147.500 33.722,147.426 34.167,147.333 34.167 C 147.242 34.167,147.167 34.571,147.167 35.066 C 147.167 35.711,147.096 35.991,146.917 36.060 C 146.746 36.126,146.667 36.393,146.667 36.902 C 146.667 37.312,146.592 37.693,146.500 37.750 C 146.408 37.807,146.333 38.261,146.333 38.760 C 146.333 39.259,146.258 39.667,146.167 39.667 C 146.075 39.667,146.000 40.071,146.000 40.566 C 146.000 41.211,145.929 41.491,145.750 41.560 C 145.569 41.630,145.500 41.912,145.500 42.578 C 145.500 43.085,145.425 43.500,145.333 43.500 C 145.242 43.500,145.167 43.875,145.167 44.333 C 145.167 44.792,145.092 45.167,145.000 45.167 C 144.908 45.167,144.833 45.571,144.833 46.066 C 144.833 46.711,144.763 46.991,144.583 47.060 C 144.403 47.130,144.333 47.412,144.333 48.078 C 144.333 48.585,144.258 49.000,144.167 49.000 C 144.075 49.000,144.000 49.413,144.000 49.917 L 144.000 50.833 147.333 50.833 L 150.667 50.833 150.667 50.427 C 150.667 50.203,150.742 49.973,150.833 49.917 C 150.925 49.860,151.000 49.448,151.000 49.000 C 151.000 48.552,151.075 48.140,151.167 48.083 C 151.258 48.027,151.333 47.604,151.333 47.145 C 151.333 46.625,151.428 46.215,151.583 46.060 C 151.738 45.905,151.833 45.496,151.833 44.988 C 151.833 44.536,151.908 44.167,152.000 44.167 C 152.092 44.167,152.167 43.759,152.167 43.260 C 152.167 42.761,152.242 42.307,152.333 42.250 C 152.425 42.193,152.500 41.747,152.500 41.258 C 152.500 40.622,152.571 40.342,152.750 40.273 C 152.931 40.204,153.000 39.921,153.000 39.255 C 153.000 38.748,153.075 38.333,153.167 38.333 C 153.258 38.333,153.333 37.921,153.333 37.417 C 153.333 36.912,153.408 36.500,153.500 36.500 C 153.592 36.500,153.667 36.097,153.667 35.604 C 153.667 35.010,153.751 34.637,153.917 34.500 C 154.076 34.368,154.167 34.000,154.167 33.489 C 154.167 33.048,154.242 32.640,154.333 32.583 C 154.425 32.527,154.500 32.330,154.500 32.147 C 154.500 31.964,154.575 31.860,154.667 31.917 C 154.758 31.973,154.833 32.205,154.833 32.432 C 154.833 32.658,154.946 32.887,155.083 32.940 C 155.226 32.994,155.333 33.243,155.333 33.518 C 155.333 33.783,155.408 34.000,155.500 34.000 C 155.592 34.000,155.667 34.188,155.667 34.417 C 155.667 34.646,155.742 34.833,155.833 34.833 C 155.925 34.833,156.000 35.015,156.000 35.238 C 156.000 35.461,156.112 35.755,156.250 35.893 C 156.387 36.030,156.500 36.298,156.500 36.488 C 156.500 36.678,156.575 36.833,156.667 36.833 C 156.758 36.833,156.833 37.061,156.833 37.339 C 156.833 37.634,156.937 37.884,157.083 37.940 C 157.226 37.994,157.333 38.243,157.333 38.518 C 157.333 38.783,157.408 39.000,157.500 39.000 C 157.592 39.000,157.667 39.183,157.667 39.407 C 157.667 39.631,157.742 39.860,157.833 39.917 C 157.925 39.973,158.000 40.205,158.000 40.432 C 158.000 40.658,158.112 40.887,158.250 40.940 C 158.387 40.992,158.500 41.215,158.500 41.434 C 158.500 41.654,158.575 41.833,158.667 41.833 C 158.758 41.833,158.833 42.096,158.833 42.417 C 158.833 42.737,158.908 43.000,159.000 43.000 C 159.092 43.000,159.167 43.188,159.167 43.417 C 159.167 43.676,159.261 43.833,159.417 43.833 C 159.591 43.833,159.667 44.009,159.667 44.417 C 159.667 44.737,159.742 45.000,159.833 45.000 C 159.925 45.000,160.000 45.188,160.000 45.417 C 160.000 45.646,160.075 45.833,160.167 45.833 C 160.258 45.833,160.333 46.061,160.333 46.339 C 160.333 46.634,160.437 46.884,160.583 46.940 C 160.721 46.992,160.833 47.211,160.833 47.425 C 160.833 47.639,160.908 47.860,161.000 47.917 C 161.092 47.973,161.167 48.203,161.167 48.427 C 161.167 48.650,161.242 48.833,161.333 48.833 C 161.425 48.833,161.500 49.015,161.500 49.238 C 161.500 49.461,161.612 49.755,161.750 49.893 C 161.887 50.030,162.000 50.298,162.000 50.488 C 162.000 50.827,162.069 50.833,165.667 50.833 L 169.333 50.833 169.333 50.417 C 169.333 50.188,169.408 50.000,169.500 50.000 C 169.592 50.000,169.667 49.596,169.667 49.101 C 169.667 48.456,169.737 48.175,169.917 48.106 C 170.097 48.037,170.167 47.754,170.167 47.089 C 170.167 46.582,170.242 46.167,170.333 46.167 C 170.425 46.167,170.500 45.792,170.500 45.333 C 170.500 44.875,170.575 44.500,170.667 44.500 C 170.758 44.500,170.833 44.096,170.833 43.601 C 170.833 42.956,170.904 42.675,171.083 42.606 C 171.264 42.537,171.333 42.254,171.333 41.589 C 171.333 41.082,171.408 40.667,171.500 40.667 C 171.592 40.667,171.667 40.254,171.667 39.750 C 171.667 39.246,171.742 38.833,171.833 38.833 C 171.925 38.833,172.000 38.490,172.000 38.071 C 172.000 37.616,172.101 37.209,172.250 37.060 C 172.405 36.905,172.500 36.496,172.500 35.988 C 172.500 35.536,172.575 35.167,172.667 35.167 C 172.758 35.167,172.833 34.754,172.833 34.250 C 172.833 33.746,172.908 33.333,173.000 33.333 C 173.092 33.333,173.167 32.968,173.167 32.520 C 173.167 32.001,173.257 31.633,173.417 31.500 C 173.568 31.374,173.667 31.009,173.667 30.573 C 173.667 30.177,173.742 29.807,173.833 29.750 C 173.925 29.693,174.000 29.239,174.000 28.740 C 174.000 28.241,174.075 27.833,174.167 27.833 C 174.259 27.833,174.333 27.389,174.333 26.833 C 174.333 26.056,174.389 25.833,174.583 25.833 C 174.772 25.833,174.833 25.631,174.833 25.010 C 174.833 24.557,174.908 24.140,175.000 24.083 C 175.092 24.027,175.167 23.642,175.167 23.228 C 175.167 22.782,175.268 22.375,175.417 22.226 C 176.215 21.428,175.896 21.333,172.395 21.333 C 168.586 21.333,168.500 21.367,168.500 22.859 C 168.500 23.303,168.425 23.667,168.333 23.667 C 168.242 23.667,168.167 24.075,168.167 24.573 C 168.167 25.072,168.092 25.527,168.000 25.583 C 167.908 25.640,167.833 26.062,167.833 26.522 C 167.833 27.042,167.739 27.451,167.583 27.607 C 167.429 27.762,167.333 28.171,167.333 28.679 C 167.333 29.130,167.258 29.500,167.167 29.500 C 167.075 29.500,167.000 29.908,167.000 30.407 C 167.000 30.906,166.925 31.360,166.833 31.417 C 166.742 31.473,166.667 31.896,166.667 32.355 C 166.667 32.875,166.572 33.285,166.417 33.440 C 166.262 33.595,166.167 34.004,166.167 34.512 C 166.167 34.964,166.092 35.333,166.000 35.333 C 165.908 35.333,165.833 35.741,165.833 36.240 C 165.833 36.739,165.758 37.193,165.667 37.250 C 165.575 37.307,165.500 37.729,165.500 38.188 C 165.500 38.709,165.406 39.118,165.250 39.274 C 165.112 39.411,165.000 39.781,165.000 40.095 C 165.000 40.410,164.925 40.667,164.833 40.667 C 164.742 40.667,164.667 40.442,164.667 40.167 C 164.667 39.892,164.592 39.667,164.500 39.667 C 164.408 39.667,164.333 39.485,164.333 39.262 C 164.333 39.039,164.221 38.745,164.083 38.607 C 163.946 38.470,163.833 38.202,163.833 38.012 C 163.833 37.822,163.758 37.667,163.667 37.667 C 163.575 37.667,163.500 37.446,163.500 37.177 C 163.500 36.907,163.425 36.640,163.333 36.583 C 163.242 36.527,163.167 36.297,163.167 36.073 C 163.167 35.823,163.071 35.667,162.917 35.667 C 162.742 35.667,162.667 35.491,162.667 35.083 C 162.667 34.762,162.592 34.500,162.500 34.500 C 162.408 34.500,162.333 34.318,162.333 34.095 C 162.333 33.873,162.221 33.578,162.083 33.440 C 161.946 33.303,161.833 33.035,161.833 32.845 C 161.833 32.655,161.758 32.500,161.667 32.500 C 161.575 32.500,161.500 32.279,161.500 32.010 C 161.500 31.740,161.425 31.473,161.333 31.417 C 161.242 31.360,161.167 31.177,161.167 31.011 C 161.167 30.844,161.054 30.614,160.917 30.500 C 160.779 30.386,160.667 30.114,160.667 29.896 C 160.667 29.678,160.592 29.500,160.500 29.500 C 160.408 29.500,160.333 29.238,160.333 28.917 C 160.333 28.596,160.258 28.333,160.167 28.333 C 160.075 28.333,160.000 28.146,160.000 27.917 C 160.000 27.657,159.906 27.500,159.750 27.500 C 159.575 27.500,159.500 27.324,159.500 26.917 C 159.500 26.596,159.425 26.333,159.333 26.333 C 159.242 26.333,159.167 26.113,159.167 25.843 C 159.167 25.574,159.092 25.307,159.000 25.250 C 158.908 25.193,158.833 24.999,158.833 24.818 C 158.833 24.637,158.721 24.446,158.583 24.394 C 158.446 24.341,158.333 24.117,158.333 23.897 C 158.333 23.676,158.258 23.346,158.167 23.164 C 158.075 22.982,157.925 22.684,157.833 22.502 C 157.742 22.320,157.667 21.983,157.667 21.752 L 157.667 21.333 153.750 21.333 L 149.833 21.333 149.833 22.073 M287.000 26.833 C 287.000 26.925,287.412 27.000,287.917 27.000 C 288.620 27.000,288.833 27.058,288.833 27.250 C 288.833 27.394,288.984 27.500,289.189 27.500 C 289.571 27.500,290.167 28.074,290.167 28.442 C 290.167 28.566,290.242 28.667,290.333 28.667 C 290.624 28.667,290.544 31.281,290.250 31.394 C 290.112 31.446,290.000 31.625,290.000 31.791 C 290.000 31.957,289.850 32.201,289.667 32.333 C 289.483 32.465,289.333 32.670,289.333 32.787 C 289.333 32.904,289.221 33.000,289.083 33.000 C 288.946 33.000,288.833 33.075,288.833 33.167 C 288.833 33.258,288.608 33.333,288.333 33.333 C 288.058 33.333,287.833 33.408,287.833 33.500 C 287.833 33.592,287.646 33.667,287.417 33.667 C 287.157 33.667,287.000 33.761,287.000 33.917 C 287.000 34.132,286.449 34.167,283.042 34.167 L 279.083 34.167 279.140 33.292 C 279.172 32.810,279.265 32.345,279.349 32.258 C 279.432 32.171,279.500 31.740,279.500 31.300 C 279.500 30.860,279.575 30.500,279.667 30.500 C 279.758 30.500,279.833 30.120,279.833 29.655 C 279.833 29.126,279.927 28.716,280.083 28.560 C 280.238 28.405,280.333 27.996,280.333 27.488 L 280.333 26.667 283.667 26.667 C 285.778 26.667,287.000 26.728,287.000 26.833 M227.895 27.134 C 227.797 27.198,227.674 27.363,227.621 27.500 C 227.556 27.671,227.522 27.637,227.513 27.389 C 227.506 27.190,227.594 26.994,227.708 26.953 C 227.985 26.855,228.122 26.987,227.895 27.134 M187.727 27.250 C 187.796 27.431,188.079 27.500,188.745 27.500 C 189.252 27.500,189.667 27.575,189.667 27.667 C 189.667 27.758,189.854 27.833,190.083 27.833 C 190.313 27.833,190.500 27.908,190.500 28.000 C 190.500 28.092,190.650 28.167,190.833 28.167 C 191.019 28.167,191.167 28.278,191.167 28.417 C 191.167 28.554,191.247 28.667,191.345 28.667 C 191.570 28.667,192.000 29.088,192.000 29.308 C 192.000 29.551,192.563 30.498,192.708 30.499 C 192.777 30.500,192.833 30.762,192.833 31.083 C 192.833 31.404,192.908 31.667,193.000 31.667 C 193.103 31.667,193.167 32.583,193.167 34.083 C 193.167 35.583,193.103 36.500,193.000 36.500 C 192.908 36.500,192.833 36.829,192.833 37.232 C 192.833 37.729,192.753 37.995,192.583 38.060 C 192.446 38.113,192.333 38.304,192.333 38.485 C 192.333 38.666,192.258 38.860,192.167 38.917 C 192.075 38.973,192.000 39.206,192.000 39.434 C 192.000 39.662,191.813 40.036,191.583 40.265 C 191.354 40.494,191.167 40.753,191.167 40.841 C 191.167 41.056,189.211 43.000,188.995 43.000 C 188.900 43.000,188.780 43.112,188.727 43.250 C 188.674 43.387,188.527 43.500,188.399 43.500 C 188.271 43.500,188.167 43.575,188.167 43.667 C 188.167 43.758,187.979 43.833,187.750 43.833 C 187.521 43.833,187.333 43.908,187.333 44.000 C 187.333 44.092,187.106 44.167,186.828 44.167 C 186.533 44.167,186.283 44.271,186.227 44.417 C 186.155 44.605,185.850 44.667,184.982 44.667 C 184.327 44.667,183.833 44.738,183.833 44.833 C 183.833 44.937,182.944 45.000,181.500 45.000 L 179.167 45.000 179.167 44.260 C 179.167 43.853,179.242 43.473,179.333 43.417 C 179.425 43.360,179.500 42.906,179.500 42.407 C 179.500 41.908,179.575 41.500,179.667 41.500 C 179.758 41.500,179.833 41.157,179.833 40.738 C 179.833 40.283,179.934 39.875,180.083 39.726 C 180.229 39.580,180.333 39.173,180.333 38.748 C 180.333 38.347,180.408 37.973,180.500 37.917 C 180.592 37.860,180.667 37.406,180.667 36.907 C 180.667 36.408,180.742 36.000,180.833 36.000 C 180.925 36.000,181.000 35.657,181.000 35.238 C 181.000 34.783,181.101 34.375,181.250 34.226 C 181.396 34.080,181.500 33.673,181.500 33.248 C 181.500 32.847,181.575 32.473,181.667 32.417 C 181.758 32.360,181.833 31.948,181.833 31.500 C 181.833 31.052,181.908 30.640,182.000 30.583 C 182.092 30.527,182.167 30.072,182.167 29.573 C 182.167 28.879,182.225 28.667,182.417 28.667 C 182.606 28.667,182.667 28.463,182.667 27.833 L 182.667 27.000 185.149 27.000 C 187.201 27.000,187.648 27.043,187.727 27.250 M330.125 27.180 C 329.719 27.416,329.682 32.000,330.083 32.333 C 330.221 32.447,330.333 32.719,330.333 32.937 C 330.333 33.155,330.408 33.333,330.500 33.333 C 330.592 33.333,330.667 33.458,330.667 33.609 C 330.667 33.856,331.117 34.542,331.826 35.375 C 331.962 35.535,332.190 35.667,332.331 35.667 C 332.472 35.667,332.728 35.854,332.900 36.083 C 333.073 36.313,333.353 36.500,333.523 36.500 C 333.694 36.500,333.834 36.556,333.835 36.625 C 333.836 36.778,334.646 37.167,334.962 37.167 C 335.088 37.167,335.303 37.279,335.440 37.417 C 335.578 37.554,335.868 37.667,336.085 37.667 C 336.303 37.667,336.527 37.742,336.583 37.833 C 336.640 37.925,336.907 38.000,337.177 38.000 C 337.446 38.000,337.667 38.075,337.667 38.167 C 337.667 38.258,337.910 38.336,338.208 38.339 C 338.506 38.342,338.896 38.454,339.074 38.589 C 339.251 38.723,339.603 38.833,339.855 38.833 C 340.107 38.833,340.360 38.908,340.417 39.000 C 340.473 39.092,340.703 39.167,340.927 39.167 C 341.150 39.167,341.333 39.242,341.333 39.333 C 341.333 39.425,341.550 39.500,341.816 39.500 C 342.090 39.500,342.339 39.607,342.394 39.750 C 342.446 39.887,342.625 40.000,342.791 40.000 C 342.957 40.000,343.201 40.150,343.333 40.333 C 343.465 40.517,343.670 40.667,343.787 40.667 C 343.904 40.667,344.000 40.773,344.000 40.903 C 344.000 41.033,344.081 41.166,344.180 41.199 C 344.435 41.284,344.398 43.228,344.134 43.683 C 343.667 44.485,342.750 45.154,341.792 45.392 C 341.540 45.455,341.333 45.580,341.333 45.670 C 341.333 45.964,336.674 45.880,336.560 45.583 C 336.508 45.446,336.285 45.333,336.066 45.333 C 335.846 45.333,335.667 45.258,335.667 45.167 C 335.667 45.075,335.517 45.000,335.333 45.000 C 335.150 45.000,335.000 44.925,335.000 44.833 C 335.000 44.742,334.887 44.667,334.750 44.667 C 334.612 44.667,334.500 44.554,334.500 44.417 C 334.500 44.279,334.425 44.167,334.333 44.167 C 334.242 44.167,334.167 44.017,334.167 43.833 C 334.167 43.650,334.092 43.500,334.000 43.500 C 333.908 43.500,333.833 43.313,333.833 43.083 C 333.833 42.824,333.739 42.667,333.583 42.667 C 333.389 42.667,333.333 42.444,333.333 41.667 L 333.333 40.667 330.104 40.667 C 327.295 40.667,326.844 40.703,326.645 40.944 C 326.467 41.160,326.463 41.236,326.625 41.291 C 326.772 41.340,326.833 41.822,326.833 42.921 C 326.833 43.781,326.908 44.527,327.000 44.583 C 327.739 45.040,327.012 45.082,319.167 45.039 L 311.167 44.994 311.167 44.257 C 311.167 43.851,311.242 43.473,311.333 43.417 C 311.425 43.360,311.500 42.906,311.500 42.407 C 311.500 41.908,311.575 41.500,311.667 41.500 C 311.759 41.500,311.833 41.056,311.833 40.500 C 311.833 39.722,311.889 39.500,312.083 39.500 C 312.258 39.500,312.333 39.324,312.333 38.917 L 312.333 38.333 319.750 38.333 L 327.167 38.333 327.167 37.750 C 327.167 37.429,327.242 37.167,327.333 37.167 C 327.425 37.167,327.500 36.824,327.500 36.405 C 327.500 35.950,327.601 35.542,327.750 35.393 C 327.888 35.255,328.000 34.848,328.000 34.486 C 328.000 34.124,328.090 33.685,328.199 33.509 C 328.782 32.577,328.284 32.512,320.508 32.506 C 315.006 32.501,313.478 32.456,313.633 32.300 C 313.743 32.190,313.833 31.772,313.833 31.371 C 313.833 30.946,313.937 30.539,314.083 30.393 C 314.229 30.247,314.333 29.840,314.333 29.415 C 314.333 29.014,314.408 28.640,314.500 28.583 C 314.592 28.527,314.667 28.147,314.667 27.740 L 314.667 27.000 322.542 27.005 C 327.973 27.009,330.326 27.063,330.125 27.180 M120.013 30.075 C 120.097 30.162,120.167 30.889,120.167 31.690 C 120.167 32.491,120.242 33.193,120.333 33.250 C 120.425 33.307,120.500 34.024,120.500 34.843 C 120.500 36.057,120.546 36.333,120.750 36.333 C 120.953 36.333,121.000 36.602,121.000 37.750 L 121.000 39.167 117.667 39.167 C 115.833 39.167,114.335 39.110,114.337 39.042 C 114.339 38.973,114.487 38.729,114.667 38.500 C 114.846 38.271,114.994 37.952,114.996 37.792 C 114.998 37.631,115.056 37.500,115.125 37.499 C 115.293 37.498,115.833 36.534,115.833 36.236 C 115.833 36.106,115.908 36.000,116.000 36.000 C 116.092 36.000,116.167 35.858,116.167 35.684 C 116.167 35.511,116.279 35.326,116.417 35.273 C 116.554 35.220,116.667 35.025,116.667 34.839 C 116.667 34.652,116.742 34.500,116.833 34.500 C 116.925 34.500,117.000 34.386,117.000 34.246 C 117.000 33.983,117.823 32.625,118.042 32.528 C 118.110 32.497,118.167 32.333,118.167 32.163 C 118.167 31.992,118.242 31.807,118.333 31.750 C 118.425 31.693,118.500 31.501,118.500 31.323 C 118.500 31.146,118.612 31.000,118.750 31.000 C 118.906 31.000,119.000 30.843,119.000 30.583 C 119.000 30.354,119.075 30.167,119.167 30.167 C 119.258 30.167,119.333 30.014,119.333 29.826 C 119.333 29.247,119.739 28.945,119.804 29.475 C 119.834 29.718,119.928 29.988,120.013 30.075 M227.500 30.505 C 227.500 31.689,227.553 32.031,227.750 32.106 C 227.904 32.166,228.000 32.419,228.000 32.768 C 228.000 33.079,228.075 33.333,228.167 33.333 C 228.258 33.333,228.333 33.483,228.333 33.667 C 228.333 33.850,228.408 34.000,228.500 34.000 C 228.592 34.000,228.667 34.112,228.667 34.250 C 228.667 34.387,228.747 34.500,228.845 34.500 C 229.075 34.500,229.404 34.834,229.547 35.212 C 229.609 35.375,229.792 35.557,229.955 35.617 C 230.117 35.678,230.402 35.901,230.589 36.113 C 230.775 36.326,231.056 36.500,231.214 36.500 C 231.371 36.500,231.500 36.575,231.500 36.667 C 231.500 36.758,231.688 36.833,231.917 36.833 C 232.146 36.833,232.333 36.908,232.333 37.000 C 232.333 37.092,232.483 37.167,232.667 37.167 C 232.850 37.167,233.000 37.238,233.000 37.326 C 233.000 37.413,233.263 37.534,233.585 37.595 C 233.907 37.655,234.211 37.771,234.262 37.852 C 234.312 37.934,234.574 38.000,234.843 38.000 C 235.113 38.000,235.333 38.075,235.333 38.167 C 235.333 38.258,235.601 38.333,235.929 38.333 C 236.256 38.333,236.636 38.446,236.774 38.583 C 236.911 38.721,237.281 38.833,237.595 38.833 C 237.910 38.833,238.167 38.908,238.167 39.000 C 238.167 39.092,238.354 39.167,238.583 39.167 C 238.813 39.167,239.000 39.242,239.000 39.333 C 239.000 39.425,239.217 39.500,239.482 39.500 C 239.757 39.500,240.006 39.607,240.060 39.750 C 240.113 39.887,240.270 40.000,240.410 40.000 C 240.882 40.000,242.000 41.077,242.000 41.531 C 242.000 41.697,242.075 41.833,242.167 41.833 C 242.258 41.833,242.333 42.016,242.333 42.240 C 242.333 42.464,242.258 42.693,242.167 42.750 C 242.075 42.807,242.000 43.036,242.000 43.260 C 242.000 43.707,240.831 45.000,240.427 45.000 C 240.294 45.000,240.140 45.075,240.083 45.167 C 240.027 45.258,239.843 45.333,239.675 45.333 C 239.507 45.333,239.326 45.446,239.273 45.583 C 239.194 45.789,238.766 45.833,236.859 45.833 C 235.002 45.833,234.500 45.784,234.333 45.583 C 234.219 45.446,233.948 45.333,233.730 45.333 C 233.512 45.333,233.333 45.258,233.333 45.167 C 233.333 45.075,233.183 45.000,233.000 45.000 C 232.817 45.000,232.667 44.925,232.667 44.833 C 232.667 44.742,232.554 44.667,232.417 44.667 C 232.279 44.667,232.167 44.554,232.167 44.417 C 232.167 44.279,232.092 44.167,232.000 44.167 C 231.908 44.167,231.833 44.017,231.833 43.833 C 231.833 43.650,231.758 43.500,231.667 43.500 C 231.575 43.500,231.500 43.273,231.500 42.995 C 231.500 42.699,231.396 42.450,231.250 42.394 C 231.075 42.326,231.000 42.053,231.000 41.482 L 231.000 40.667 227.917 40.667 C 224.976 40.667,224.833 40.652,224.833 40.343 C 224.833 40.165,224.908 39.973,225.000 39.917 C 225.092 39.860,225.167 39.513,225.167 39.145 C 225.167 38.773,225.278 38.365,225.417 38.226 C 225.563 38.080,225.667 37.673,225.667 37.248 C 225.667 36.847,225.742 36.473,225.833 36.417 C 225.925 36.360,226.000 35.906,226.000 35.407 C 226.000 34.908,226.075 34.500,226.167 34.500 C 226.258 34.500,226.333 34.157,226.333 33.738 C 226.333 33.283,226.434 32.875,226.583 32.726 C 226.729 32.580,226.833 32.173,226.833 31.748 C 226.833 31.347,226.908 30.973,227.000 30.917 C 227.092 30.860,227.167 30.406,227.167 29.907 C 227.167 29.408,227.242 29.000,227.333 29.000 C 227.432 29.000,227.500 29.613,227.500 30.505 M200.667 33.833 C 200.667 34.045,200.560 34.162,200.375 34.154 C 200.201 34.146,200.167 34.107,200.292 34.056 C 200.406 34.010,200.500 33.866,200.500 33.736 C 200.500 33.606,200.537 33.500,200.583 33.500 C 200.629 33.500,200.667 33.650,200.667 33.833 " stroke="none" fill="#fcfcfc" fill-rule="evenodd"></path><path id="path1" d="M390.375 7.301 C 389.985 7.329,389.667 7.423,389.667 7.510 C 389.667 7.606,385.540 7.667,378.931 7.667 C 372.218 7.667,368.174 7.727,368.139 7.827 C 368.104 7.926,364.082 7.995,357.467 8.009 C 351.628 8.021,346.828 8.092,346.800 8.166 C 346.773 8.240,341.852 8.329,335.866 8.363 C 327.583 8.410,324.953 8.473,324.858 8.627 C 324.763 8.781,322.252 8.830,314.170 8.836 C 307.922 8.840,303.530 8.906,303.419 8.998 C 303.309 9.089,298.857 9.162,292.575 9.174 C 286.713 9.186,281.842 9.257,281.750 9.332 C 281.658 9.406,276.821 9.497,271.000 9.533 C 263.235 9.581,260.321 9.651,260.057 9.797 C 259.790 9.944,257.002 9.997,249.235 10.003 C 243.026 10.007,238.696 10.073,238.585 10.165 C 238.475 10.257,234.051 10.329,227.746 10.340 C 221.888 10.351,216.978 10.422,216.836 10.498 C 216.695 10.574,212.042 10.657,206.498 10.681 C 198.875 10.715,196.203 10.779,195.542 10.944 C 194.870 11.112,192.245 11.164,184.180 11.169 C 177.875 11.173,173.670 11.238,173.637 11.331 C 173.605 11.424,169.299 11.495,162.875 11.510 C 156.918 11.523,152.207 11.597,152.256 11.677 C 152.306 11.757,148.948 11.827,144.714 11.836 C 134.837 11.855,131.013 11.940,130.454 12.153 C 130.161 12.264,126.242 12.329,119.382 12.338 C 113.394 12.346,108.684 12.417,108.582 12.501 C 108.481 12.585,103.785 12.662,97.869 12.676 C 92.076 12.691,87.375 12.767,87.424 12.845 C 87.472 12.923,84.078 12.994,79.881 13.002 C 69.980 13.021,65.912 13.113,65.517 13.324 C 65.308 13.436,61.495 13.498,54.528 13.502 C 48.115 13.507,43.836 13.571,43.804 13.664 C 43.772 13.757,39.465 13.829,33.050 13.843 C 27.165 13.856,22.328 13.926,22.300 13.999 C 22.273 14.072,17.487 14.166,11.667 14.207 C 3.318 14.265,0.985 14.328,0.619 14.503 L 0.156 14.725 0.203 16.404 L 0.250 18.083 10.785 18.105 C 19.386 18.122,21.400 18.084,21.758 17.899 C 22.113 17.714,24.155 17.670,32.628 17.664 C 38.840 17.660,43.137 17.594,43.249 17.501 C 43.360 17.409,47.773 17.338,54.125 17.327 C 60.076 17.316,64.837 17.243,64.865 17.162 C 64.894 17.081,69.614 17.006,75.500 16.994 C 84.253 16.975,86.147 16.931,86.449 16.738 C 86.752 16.545,88.619 16.503,97.354 16.498 C 103.715 16.493,107.969 16.428,108.084 16.333 C 108.198 16.238,112.469 16.170,118.831 16.162 C 124.638 16.155,129.513 16.082,129.665 16.001 C 129.817 15.920,134.660 15.841,140.429 15.827 C 149.055 15.805,150.982 15.760,151.282 15.569 C 151.584 15.379,153.493 15.337,162.188 15.331 C 168.548 15.327,172.803 15.261,172.917 15.166 C 173.032 15.071,177.306 15.003,183.672 14.995 C 189.483 14.988,194.317 14.916,194.414 14.836 C 194.511 14.755,199.370 14.673,205.212 14.653 C 213.884 14.623,215.869 14.575,216.021 14.391 C 216.174 14.207,218.113 14.167,226.760 14.167 C 233.288 14.167,237.476 14.104,237.744 14.002 C 238.010 13.901,242.177 13.835,248.608 13.831 C 254.516 13.827,259.163 13.758,259.323 13.672 C 259.481 13.587,264.232 13.506,270.148 13.487 C 278.774 13.459,280.731 13.412,280.916 13.226 C 281.102 13.040,283.022 13.000,291.666 13.000 C 298.258 13.000,302.303 12.939,302.495 12.836 C 302.687 12.733,306.677 12.669,313.120 12.664 C 318.795 12.660,323.696 12.589,324.011 12.506 C 324.326 12.423,329.287 12.330,335.037 12.299 C 343.016 12.256,345.539 12.194,345.695 12.038 C 345.853 11.881,348.342 11.833,356.500 11.833 C 363.243 11.833,367.160 11.774,367.264 11.669 C 367.369 11.565,371.271 11.502,377.957 11.498 C 383.973 11.493,388.526 11.426,388.579 11.341 C 388.629 11.259,390.151 11.184,391.960 11.175 L 395.250 11.158 374.125 32.223 C 355.222 51.072,352.544 53.833,353.167 53.833 C 353.258 53.833,353.333 53.914,353.333 54.012 C 353.333 54.206,353.744 54.667,353.917 54.667 C 354.056 54.667,354.500 55.111,354.500 55.250 C 354.500 55.522,355.024 55.833,355.482 55.833 C 355.915 55.833,356.415 55.404,358.994 52.817 C 360.647 51.158,362.000 49.863,362.000 49.940 C 362.000 50.017,362.199 49.799,362.443 49.456 C 362.687 49.114,362.968 48.833,363.068 48.833 C 363.168 48.833,363.398 48.612,363.579 48.342 C 363.759 48.072,363.930 47.874,363.958 47.902 C 364.053 47.997,366.441 45.584,366.377 45.458 C 366.342 45.390,366.374 45.332,366.448 45.331 C 366.682 45.326,367.663 44.385,367.551 44.273 C 367.493 44.215,367.532 44.167,367.639 44.167 C 367.879 44.167,368.500 43.562,368.500 43.328 C 368.500 43.234,368.628 43.107,368.784 43.047 C 369.184 42.894,390.833 21.226,390.833 20.980 C 390.833 20.869,390.876 20.821,390.929 20.873 C 391.053 20.998,392.833 19.218,392.833 18.969 C 392.833 18.864,392.878 18.823,392.933 18.878 C 393.054 18.999,394.000 18.059,394.000 17.818 C 394.000 17.724,394.065 17.687,394.144 17.736 C 394.328 17.850,394.872 17.261,394.723 17.111 C 394.661 17.050,394.736 17.000,394.889 17.000 C 395.042 17.000,395.167 16.883,395.167 16.740 C 395.167 16.597,395.228 16.518,395.304 16.565 C 395.471 16.668,396.012 16.068,395.875 15.931 C 395.822 15.877,395.865 15.833,395.972 15.833 C 396.225 15.833,396.835 15.224,396.708 15.097 C 396.655 15.044,396.741 15.000,396.899 15.000 C 397.057 15.000,397.140 14.925,397.083 14.833 C 397.027 14.742,397.059 14.667,397.155 14.667 C 397.419 14.667,397.995 14.127,397.898 13.970 C 397.852 13.895,397.935 13.833,398.083 13.833 C 398.232 13.833,398.307 13.758,398.250 13.667 C 398.193 13.575,398.264 13.500,398.407 13.500 C 398.550 13.500,398.667 13.387,398.667 13.250 C 398.667 13.112,398.760 13.019,398.875 13.042 C 398.990 13.065,399.065 12.990,399.042 12.875 C 399.019 12.760,399.117 12.667,399.260 12.667 C 399.403 12.667,399.477 12.597,399.424 12.512 C 399.372 12.427,399.480 12.309,399.664 12.251 C 399.981 12.150,400.000 12.004,400.000 9.644 L 400.000 7.144 395.542 7.197 C 393.090 7.226,390.765 7.273,390.375 7.301 " stroke="none" fill="#d4d4d4" fill-rule="evenodd"></path></g></svg>